<?xml version="1.0" encoding="UTF-8"?>
<svg viewBox="0 0 827 640" xmlns="http://www.w3.org/2000/svg">
 <g fill-rule="evenodd">
  <path d="m370 568q0-2 2-3 3 0 3 3-1 3-3 3t-2-3z" fill="#d5dac4" stroke="#d5dac4"/>
  <path d="m378 198q2 0 3 2 0 2-3 3-2 0-2-3 0-2 2-2z" fill="#d2d6c0" stroke="#d2d6c0"/>
  <path d="m81 3v-3h78t-3 1q-2 0-2 1t2 1l1 1h3l8 3q9 3 9 3 1 0 1 0v1h1v1h3l2 1 2 1h-1l-1 1-2 1h-2q-2 0-4 1-1 1-2 2-2 2-4 3t-2 2 2 2 2 6q0 4-4 7l-4 3v-2h1v-1h1v-1l2-1q1-1 1-2h1v-3h-9l-1 1q-2 1-6 3-3 2-11 12-7 10-14 16l-7 6q-1 0-1 1h-1l-1 1h-2l-1 1-1 1h-1q-2 0-6 2-5 0-19-1t-14-2q-1-1-1-14t1-17 7-10l6-6h1-1q-1 0-2 0t-2-2q0-3-2-10 0-8-1-11z" fill="#e7ebdd" stroke="#e7ebdd"/>
  <path d="m805 498l-9-6 11 2q11 0 15 0t4 2q0 1 1 1v8q-1 0-1 1 0 2-6 0t-15-8z" fill="#cad4b4" stroke="#cad4b4"/>
  <path d="m825 472h1t0 1h1v10l-1 2q0 2-1 2v-1h-1q-1 0-6 0h-4l-2-1q-1 0-1-1 0-2 5-5 6-3 7-5 1-1 2-2z" fill="#d2d9bf" stroke="#d2d9bf"/>
  <path d="m827 97v2q-1 0-1 4t-6 4l-6-1h-2q-1 0 0-2 2-2 8-6t6-2q0 1 1 1z" fill="#cdd4b9" stroke="#cdd4b9"/>
  <path d="m30 608h7q6 0 11 2 6 0 10 0t5 1h1q0 1 0 1h1t1 1v2l2 3q2 2 1 10-1 7-1 8v1h-1v1h-1l-7 1q-7 0-7-2t-2-2q-2-1-4 1-2 1-2 2v1h-12l-2-1v-5h-1v-4q-1-3-1-11v-9h1v-1h1z" fill="#c4cfaa" stroke="#c4cfaa"/>
  <path d="m826 456l1 8v9h-1q0-1 0-1h-1t-12 1-13 0 6-5 13-12q5-7 7 0z" fill="#ccd4b5" stroke="#ccd4b5"/>
  <path d="m159 0h129v6q0 5 4 11 2 6 3 8v2h-4q-4 0-5 4v5h-2q-2 0-6-2-5-2-9-2-3 1-6 5t-1 25l1 20h-1v-5q0-5-4-23-4-19-3-24l1-4h-2q-2 0-5 2-3 1-3 0t-1-1q-1-1-2 1t-2 0l-1-1v-3t-1-2q-1-1-2-2-1-2-7-2-5 0-12 5l-8 5q-1 0-1 1h-1q0 1 0 1-1 0-1 1h-1q0 1-2 1h-1v-1q0-1-1-1t-1-3v-2h-1q-1 1-8 4-6 3-7 3-1 1-1 2t-2 2-3 5-3 5q-1 1-2 4-2 4-2 8v6h1v1h1v2h2l1-1h2q2 0 5-1 4 0 4-1 1-2 2-1 2 0 2-1t2 1q1 3 1 2 1 0 1-1v-2l1 1 1 1v-1l1 3v4q1 1 0 4t-3 6q-3 4-10 8-6 4-15 6t-14-9q-5-10-6-17-1-8 1-10 0-2 6-9l6-7t1 0v-1q1 0 1-1 0 0 1 0v-1q1 0 1-1 0 0 1 0v-1q1 0 1-1 0 0 1 0v-1l1-1t0-4q0-3-2-4t-2-2 2-2 4-3q1-1 2-2 2-1 4-1h2l2-1 1-1h1l-2-1-2-1h-3v-1h-1v-1t-1 0-9-3l-8-3h-3l-1-1q-2 0-2-1t2-1q3-1 3-1z" fill="#e6eadb" stroke="#e6eadb"/>
  <path d="m34 554h9l6 2q7 2 13 3t6 2 3 2 3 2 1 2q1 0 1 1t4 4q4 2 6 8 2 5 5 8 2 2 4 3t4 1h2v1h1v7h-3q-1 0-1 1t-2 1q1 1-1 4-1 2-2 2h-1q-1 0-4 2-2 0-2-1-1-1-2-1t-2-2l-2-2v-1h-1v-1h-1l-1-1h-1v-1t-1 0h-1q-1 0-14-4-12-4-18-8-7-4-10-10-2-7-2-15 1-8 4-9zm65 41v-1h2v2q-1 2-1 1v-1l-1-1z" fill="#e4ead9" stroke="#e4ead9"/>
  <path d="m437 572l1 4q2 5 3 8 2 2 11 7 10 5 22 7 12 3 14 4 1 2 1 2h1v1h1v1h1v-1h1v-1h1t-2-1q-1-1-1-2v-1h3l1 1q1 1 1 1v1h1v1h1v1l1-1 1-1h2v2l-1 1v1h2v-1l1-2v-2h1t1 0q2 0 4-5 2-4 3-4 1-1 2-2l1-2 1-1h1v-1h1v-1q1 0 1 0v-1l1-1 1-1v-2h2v2h1v1h2v1h1v1h2l-1 2q-1 2-2 3t1 1q1 0 1 1-1 1-1 1v1h-1v1h2l7 1 7 1h1l-6 1-5 1h-3v1h-1v1h-1v2l1 1 1 1v-1h1v1h1l14-3q14-3 23-1 9 0 14 5t7 11q2 5 2 8t-4 6q-2 3-3 3v1h-1v1l-1 1-1 1v1h-137v-1h3l4-1h1v-1h1v-1h2q3-2 4 1 1 2 8 2l7-1h1v-2l1-1q1-1 1-9t-4-12q-3-4-8-4-4 0-9 0-5-2-11-2h-6l-2 1q-2 1-2 5v3t-1 2v2h-2v-3l-1-3v2l-1 3-1 4v-3h-2v-1q0-1-2-4 0-2-5-6-4-4-9-6l-6-1v-1h1t1-3q2-2 1-7-1-6 1-7 1-1 2-4 0-3 2-5l2-2h-1l1-1h1v-3l5-2q6-2 6-3 0 0 1 0l2-1q3-1 4 4 1 4 2 4z" fill="#eef1e6" stroke="#eef1e6"/>
  <path d="m824 605h2v2h1v2q-1 0-1 12v12h-1v1h-1t-3-2l-3-2v4q0 3 0 4 0 0-14 0l-15 1h-5l-6-1-1-2-1-1v-5l3-4q2-4 5-7 2-3 4-9 2-5 5-6 2-2 16 0 14 0 15 1z" fill="#c4cfaa" stroke="#c4cfaa"/>
  <path d="m469 544v-4l3 3q2 3 4 3t2 1q1 1 2 2 1 0 1 1 1 2 1 0 0-1 1-1t1 1q0 2 9 7t11 6q3 2 6 9 3 8 4 8t1-1 3-1h2v1h-1v1h-1v1l-1 1q-1 2-1 4v3l-1 2q-1 1-2 2-1 0-3 4-2 5-4 5-1 0-1 0h-1v2l-1 2v1h-2v-1l1-1v-2h-2v-3q0-2-1-4-1-3-4-8-3-6-1-6 1 0-1-2-2-1-1-3 1-1-4-7-5-4-5-6 1-1-3-2-3-2-4-2 0-1-4-2-3 0-12-2l-9-2h-7v-1l12-1q12 0 13-1h1v-1q0-1-1-6zm25 39t1 0q0 1-1 1 0 0 0-1z" fill="#edf1e5" stroke="#edf1e5"/>
  <path d="m787 198q3 0 3 2 0 3-3 3-3 1-3-2t3-3z" fill="#d0d5bc" stroke="#d0d5bc"/>
  <path d="m429 564v1q-1 0-1 0 0 1-6 3l-5 2h-6q-6 0-11-2t-12-9q-8-7-11-13l-3-7v-1t-1 0v-2q-1-1-1-1v-5l-1-4v-3h1l2 1h1v1h1v1l1 1 1 1 6 6q6 6 7 6h1v1h1v1h2l1 1 1 1h2l1-1h1v-3l-1-2v-1l-1-1-1-1v-1l-8-9q-8-9-10-15-3-7 4-3 7 3 17 8t23 7q12 2 15 3t3 5q2 4 0 7-1 3-5 9-5 5-6 11-1 7-1 7t-1 0z" fill="#c5cfab" stroke="#c5cfab"/>
  <path d="m614 70v-2l1 2 1 2v1l4 13q4 13 6 19 2 7 11 6t18-5 13-10q4-7 4-9t1-3v-2q1 0 1 2v2l1 2 1 1v-2l1-1v-2h2l1 2q0 2 1 1h1l-2 5q-2 4-2 6 0 3 3 5t5 7q2 4 10 8 7 2 14 3t10 0l2-1h2l2 1h1v1l-1 1v1h-1v1h-1v1h-1l-1 1-1 1h-1q-2 0-16 4t-19 8q-5 3-5 8t4 10q4 4 6 12 2 7 7 12l5 5q0 1 0 1h1v4h-2q-2 0-3 1 0 1-4 7-4 7-4 14 0 8 2 10t2 5-3 6-4 6-4 5-3 8v8h1q1 1 1 4 0 4 2 7t4 3h8v2h-2v1h-1v1h-10v-1h-1v-1 3h1v1h1l1 1 1 1h1l11 1 11 1h1v3h-1l-1 1h-1l-1 1q-1 1-2 1t-5 7l-3 7h-1l-1 1h-1v-2q-1-2-3-5-3-4-6-6-4-2-6-3-1-1-6-3-6-2-8-2-1 0-1-1-1-1-6 0l-6 1v1h-1v1t-1 0v1h-1q0 1 0 1-1 0-1 1l-3 3q-4 2-9 10-5 7-5 14 0 8 3 15t9 14 9 9 3 3 1 1 1 1 1 2l1 1v8h-1l-3 1h-3l-1-1h-2v-1h-1v-1q-1 0-6-10-5-11-10-17-5-5-15-11l-9-6q-1-1-1-2t-4-2q-3-2-10-2l-7-2h-1v-2h1t1-1-1-1q-2-1-1-3 1-3 3-7 1-4 2-10 1-5-1-6 0-1-5-3-4-1-7-10-2-8-1-8t5-5l3-4q1 0 1 0v-1t1-1q1 0 4-4 3-3 3-6 0-4-4-11t-8-10-13-3-14 0l-5 2h-2v-2h-2v-1h-1v-1h7l7-2q7-2 15-9t12-16 4-12 0-7v-6h-1l-1-1-1-1h-6q-6 0-9 2-2 0-11 8l-9 8h-2v1h-3l-3-1v-7h1v-1h1l2-4q3-4 4-4 2-1 2-2t8-8q8-6 11-14t3-16-1-10l-1-1v-2h-4q-3 1-5 1t-7 4l-4 4v1h-1v1h-2v1h-1v1h-2v-5l2-8q0-8 4-8 3-1 4-2 2-2 6-3 3 0 3-2v-1l1-1q0-1 7-1 7-1 17-5 9-4 16-10 6-7 7-8l1-1v-3z" fill="#f9f9f6" stroke="#f9f9f6"/>
  <path d="m438 609l2-1h6q6 0 11 2 5 0 9 0 5 0 8 4 4 4 4 12t-1 9l-1 1v2h-1l-7 1q-7 0-8-2-1-3-4-1h-2v1h-1v1h-1l-4 1h-6l-3-1h-1v-5q0-5-1-11l-1-5v-3q0-4 2-5z" fill="#c4cfaa" stroke="#c4cfaa"/>
  <path d="m288 6v-6h99l-1 2q0 1-2 4t-1 6 3 4q3 1 3 2-1 1-1 3v2q-1-1-1-1v-1q-1-1-1-2t-2-2l-3-1h-1t-1-1-7-1q-7 0-12 2t-14 6q-8 2-10 6-2 3-3 12t5 24l6 14v7h-2l-1-1h-2v-1h-1v-1h-1v-1h-1v-1q0-1-2-6-2-4-7-12t-9-12q-5-4-10-4t-7 0q-1 1-9 3-8 1-11 3t-6 6-3 10q0 5 0 7l1 2h-1q-1-1-2 1v2l-1-1v-1h-2v1l-1 1v2h-1l-1 1h-2v-13q0-10 0-20 0-11 2-14 2-4 6-4 5 0 8 2 4 2 6 2h2v-5q1-4 5-4h4v-2q-1-2-3-8-4-6-4-11z" fill="#f5f7f0" stroke="#f5f7f0"/>
  <path d="m361 487v-1h4v1h1v1l1 2 1 1v2l-4 17q-4 16-4 26v11q0 1 0 5t-2 0l-2-4v-2q0-2-1-12l-1-10v-2l1-8q1-8 1-14l2-7v-3l1-1 1-1v-1h1z" fill="#c9d4b5" stroke="#c9d4b5"/>
  <path d="m29 166l5-6v2q0 1 4 2 3 1 2 2-1 2-1 2-1 1 0 2l1 2 2 1h1v2h-5q-5 0-5-1-1-1-1 0l-2 4q0 3 0 12 0 8 2 12 1 3 2 3t1 1 11 6q12 6 21 8 9 3 10 3v1h1v2h1v1h1v4l-3 3q-3 4-4 4t-1 1q-1 1-2 0h-1v-1q-1 0-3-3t-7-3-11-2q-5 0-10-1l-6-1-1 1-1 1h-1v1h-1v8q0 8 0 15v12h-1v-1l-1-1h-4v1l-1-3q-1-4-1-8l-1-3v-5q-1-6-1-8 0-1-4-5l-2-4h-1v-1h-2l-1-1-1-1h-3l-2-1h-1v19h-1v-62l1 4v5h5q5-1 10-3t6-8q2-7 7-14z" fill="#f6f8f2" stroke="#f6f8f2"/>
  <path d="m0 113v-10h1v4h7l6 1h2v2h-1v1h-1v1h-1l-1 1-1 1-5 1q-4 2-5 5l-1 3v-10z" fill="#f2f5ea" stroke="#f2f5ea"/>
  <path d="m768 188q1 0 2 0 2 0 2 2t-2 3q-3 1-3-2t1-3z" fill="#d2d8c2" stroke="#d2d8c2"/>
  <path d="m777 12l5 2q6 2 11 6 5 5 9 9 4 5 9 7t6 4q1 1 1 8 0 8-4 15t-10 14q-7 7-10 9-4 2-5 3l-1 1h-1l-1 1-1 1h-2l-1 1h-1v-1l1-2v-1l1-1 1-1 2-4q2-4 2-5v-6h-1q-1 0-3 1l-2 1v1-5q2-3 2-6v-2l-1-1v-1h-5v1q0 1-2 3l-2 2h-1v1h-1v2l-1-8q-1-8-1-11v-2l-1-1-1-1v-2l-1-1v-1h-5l-1 1-1 1v2l-2 4q0 4 0 13t2 15q2 7 2 9v2l1 3v3h-2l-2-1h-3q-3 0-8-3-6-3-11-8l-5-6v-1h-1v-1h-1v-1h-4v6l3 5q3 5 3 6l1 1 1 1v3h-20v1h1v1h1v1h1v1h1v1h1v1h1v1l7 3q7 4 13 4 5 0 10 0h4v-1h1v1h1v2h-1v1h-1v2h-1v1h-1v1h-1q0 1-3 3-2 2-2 3t-1 1q-1 1-12 9l-11 9h-1v1h-1v1h-2v1l-1 1v1l7-1q8 0 10-1l1-1h2v1h1v1l-1 2-1 1v1q0 2-2 4l-2 3v2l-1 1v1h1l1-1h3l1-1 1-1h1l5-6q5-4 5-5h1v-2h1v-1h1v-1h1v-1h1v-1 9q0 2-2 14 0 12-4 15-2 3-11 6-8 3-19 4t-13 0l-2-1q-1-1-1-1l-5-5q-5-5-7-12-2-8-6-12-4-5-4-10t5-8q5-4 19-8t16-4h1l1-1 1-1h1v-1h1v-1h1v-1l1-1v-1h-1l-2-1h-2l-2 1q-3 1-10 0t-14-3q-8-4-10-8-2-5-5-7t-3-3 1-6l2-6q1 0 1 0v-1l-1-10q-1-10 1-16 4-6 7-8 4-3 11-4t10-3q2 0 7 0t10 4 11 16 6 13v1h1v1h1v1h1v1h1v1h4v-8l-6-13q-4-13-4-23 0-9 3-13 3-3 11-6 7-3 12-5 4-2 6-3 3-1 3-1z" fill="#c4cfaa" stroke="#c4cfaa"/>
  <path d="m758 535v-1h1v1h1v1h1v1h1v-1h1l1 4q0 5 1 7l1 2v3l1 1 1 1v1l1-7v-7h1v1l1-2q1-1 2-3l1-3h2v1l2 1q1 2 2 2h1t1 1q0 1 0 1h1l4 6q3 7 5 10 2 2 9 7t10 5q3 2 9 2t6-2v-1h1v40h-1v-2h-2q-1-1-15-1-14-2-16 0-3 1-5 6-2 6-4 9-3 3-5 7l-3 4v5l1 1 1 2 6 1h5v1h-112l-1-1-2-1h-1v-1h1v-4h1v-1h1t2-4q3-4 5-4t3-4q1-2 4-6 2-4 3-4t1-2-2-4q-4-3-4-11t6-13q5-4 8-4 4 0 4 2 1 2 4 2h2v-1h1v1h1v-2h-1v-1h-1v-2h-1v-1h-1v-2l1-1v-1h2v-1l11-2q12-1 17-4t7-4 4-6 2-7q0-1-1-5v-4h1v-2h2v2l1-1 1-1zm22 31q3 0 4 2 0 2-2 3-3 1-4-2 0-3 2-3zm-10 1q2 0 2 2 0 3-2 3-3 0-3-2 1-3 3-3zm14 12q0-3 3-2t3 3q-1 2-4 2-2 0-2-3zm-16 1q2 0 3 2 0 2-3 2t-3-2q-1-2 3-2zm13 7q3 0 3 2t-3 2q-3 1-3-2 0-2 3-2z" fill="#f6f7f2" stroke="#f6f7f2"/>
  <path d="m809 285h1v1h2v1h1v1h1l1 1h1v2h-2l-1-1h-2q-2 0-7 0-6 0-5 2 1 3-3 4h-5v1h-1v2h1v1h1q2 2 4 2h2v1h-1v1h-2q-2 0-7 2l-5 2v1h-1v1h-1v1h-1v5l8-1q8-1 18-5t11-5l1-1h4v8q0 8-2 10-2 3-3 3v1h-1v1h-1v1h-1v2l-1 1v1h5l2-2q3-2 3-2h1l1-1h1v37h-2q-1 0-4 2-3 0-8 0-6-2-13-11t-5-14q0-5 3-7 2-2 2-3 1-1 7-6l6-5h1v-1h1v-1h1v-1h1v-2l1-1v-1h-2l-2 1h-2l-1 1-1 1h-1q-1 0-9 6t-15 7l-6 2h-4q-3-1-6-3-2-3-6-6l-4-4q0-1-1-1v-1q-1 0-1 0l-2-3q-2-3-1-7 1-5 5-12 6-7 7-12 1-4 5-6 5-2 12-2 6 0 16 5t10 5q1 0 1 1z" fill="#c4cfaa" stroke="#c4cfaa"/>
  <path d="m768 201q3 0 3 2 0 3-3 3-2 0-3-2-1-3 3-3z" fill="#d3d7c4" stroke="#d3d7c4"/>
  <path d="m238 448h-5v-1h-1v1h-1l-1-1h-1v-7q-1-6 2-12t7-12 11-8q7-3 7 1-1 5-2 7 0 2 0 6t0 10-2 6q-2-1-3 2-1 4-3 4-1 0 0 1t-2 2q-4 1-4 1t-2 0z" fill="#f0f3ea" stroke="#f0f3ea"/>
  <path d="m513 0h169l5 8q5 7 5 8t2 2q2 2 3 3 0 1-3 0-2-1 0 3 2 5 2 8v3h-1v1h-3q-3 0-6-1t-7-1h-5v1h-1v1h-1v2q-2 3 0 14 0 12 1 21v11q-1 1-1 3t-4 9q-4 6-13 10t-18 5-11-6q-2-6-6-19l-4-13v-1l-1-2-1-2v5l-1 1q-1 1-7 8-7 6-16 10-10 4-17 5-7 0-7 1l-1 1v-3q-1-4-1-4 0-1-6-2l-6-2h2l2-3q2-2 3-2v-1h1v-2l-1-1-1-1v-2h-1v1h-1v3h-1v1h-1v1h-1t-1 0-1 2q-1 0-5 2-5 2-5 3t-1 1q-2 0-9-4t-9-4h-2l-1-1-1-1h1q1 0 1-1t1-1 1-1h1v-1h1v-2h-2l-2 1-1 1h-2q-2 0-5 1l-4 1h-1l-9-1q-10-1-12-2-3-1-4-3 0-3 0-16t5-20q5-6 10-10t16-6 14-3 7-1h3v-1h1v-1h2v-1h-1v-1h-15q-9 0-12-2l-4-2-1-1-1-1h-3v-1h-1v-1h-1v-1h-1v-1h3l5-1q5-1 5-1z" fill="#e8ecde" stroke="#e8ecde"/>
  <path d="m438 358v4h1v1h1v-1l2 1q2 1 2 2 1 1 9-1 7-1 8-2 0-1 1-1t1-1 5 0q6 1 10 6 4 4 5 8t3 4q2-1 2 0t-1 2-1 5q1 3 1 5t0 3 0 5 1 3q2-1 2 1 0 3 0 3v1h2q1 0 2-1l1-1h4l-1 1v1h-2v1h-1v1l-4 3q-3 4-6 10t-3 9 0 8v9l-1-1h-1v-3l-1-3q-1-2-1-6l-2-4v-1h-1v1h-1v1l-1 1q0 1-1 1-2-1-3 0t-8 5-7 6q1 1-1 1h-2v5h-1v-1l-1-1q-1-1-5-5-5-3-10-4t-8 1q-4 2-10 9-6 8-13 14l-8 7h-1v1h-1v1h-1l-1 1h-1v-1q0-1 1-4l1-2h-2l-2 1-1 1h-1v-1h-1v1h-1l-2 1h-2v-1h1l1-1 1-1h1v-1h1v-1h1q1 0 8-7 8-7 12-14t4-14 0-9q-1-2-6-4t-11-8q-5-6-11-11l-6-5h2q2 0 3-4t1-5q1-1 4-6 2-6 5-9t3-5l-1-2h1l1 1h1v1q0 1 2 2t10 0q7-1 10-2t10-2q8-1 9-2t1-1zm0 8l2-1q2 0 2 1t-2 1l-3-1h1z" fill="#eff1e8" stroke="#eff1e8"/>
  <path d="m372 208q3 0 3 2 0 3-3 3-3-1-3-3 1-2 3-2z" fill="#d3d7c1" stroke="#d3d7c1"/>
  <path d="m477 238t1 1v1t1 5v7q-1 2-5 10-4 7-10 11l-5 3v1h-1v1h-3l-1 1-1 1h-3v-3h1v-1h1v-2h1v-1q1 0 3-5l2-4 1-1 1-1v-6h-1v-1h-1v1h-2v1h-1v1h-2v1l-1 1t-6 8l-6 8h-1l-1 1-1 1h-1l-1 1-1 1h-2v-3l1-1 1-2v-1q0-1 1-3 1-1 2-10l1-10v-1l-1-3q-1-2 0-8v-7h1v-2h7q7 1 9 1 3 2 10 2 8 0 10 3 2 2 3 3z" fill="#c5cfab" stroke="#c5cfab"/>
  <path d="m382 275l2 1h2l7 4q7 4 8 5l1 1h1l1 1 1 1h1v1h1v1h1-11q-7 0-6 2 1 3-3 4-5 0-5 2 1 2 3 4 2 1-6 4-8 4-9 6-1 3 7 3 9-1 22-6t14 0q0 5-2 10t-4 7q-2 3-3 4 0 2 5 0 4-2 6-4 2-3 4-2 2 0 3 6 1 5 3 5 1 0 3-6 3-6 1-12 0-6-1-7l-1-2v-2h-1v-1h1v-1h2l2 1 1 1h2l10 6q9 5 11 6t2 1v1h2v1h1v1h1l2 1h1v-2l-1-2v-1q0-2-2-4l-2-2v-1h-1v-1h4q3 0 6 0h3v1l1-1v-2h-2v-1h-1v-1h-1v-1h-1v-1h-1q-1 0-5-2l-4-2h-3v-1h-1v-1h1l3-1 4-1 6-1q5-1 10-1t6 0h1q1 0 3 2 4 3 8 10 4 6 4 12 2 5 0 9t-7 7q-5 4-9 8-5 6-11 6t-14-11l-9-10v-2h-1v-1h-2v-1h-1v-1h-3v1l1 1v3l1 1 1 1v11q0 11-4 14-4 4-4 4t-1 1-9 2q-7 1-10 2t-10 2q-8 1-10-1l-3-1v-1q-1 0-1 0 0-1-1-1v-1q-1 0-4-5t-4-11q-1-5 2-10 3-4 9-9l7-5h1l1-1h1v-2h1v-1h1v-3h-2l-2 1h-2v1h-1v1h-1q-1 0-4 2-2 2-10 7t-17 5-13-6l-4-5h-1v-1h-2v-1h-1v-1h-1t-1-1v-1t-1 0v-1q-1-1-1-5 0-3 3-9l3-6h1v-1h1v-1l1-1 1-1v-1l2-6q2-5 6-7 4-1 11-1t9 1z" fill="#c4cfaa" stroke="#c4cfaa"/>
  <path d="m300 203l4 3v2l1 1 1 1v-2h2v-1l1-1v-2l1 1q2 1 1 10t-5 11-4 2h-1v1h-1v5h1v1h1v1h1l1 1 1 1h1l1-1 1-1h1l2-1q2 0 2-1-1-2 0-5t4-3q3-2 17-1t25 5q11 5 11 8v2h2v1h1v-1h2l-3 4q-4 5-4 10 0 4 3 7t9 5q5 2 6 2h2l-1 1h-1v2h-2v2h1v1h1v2h-2l-2-1q-2-1-9-1t-11 1q-4 2-6 7l-2 6v1l-1 1-1 1v1h-1v1h-1v-8q0-2 1-5 0-2-3-2-4-1-4-3-1-1-8-5-8-2-12-5l-4-3-1 1h-1v1q0 2-3 7t-7 9q-3 2-18 3l-14 1-1-1-1-1h6v-1h-1v-1h-2q-2 0-3-3-2-3-2-8-1-5-3-6-1-1-2-7-1-5 1-6 2-2 6-4 4-1 4-4 0-4 4-8 2-3 3-6 0-3-1-3t-2-1q0-2-1-7 0-5 1-8 0-4 3-5 2-1 2-2 1-1 4-1 3-1 4-2 1-2 1-1 0 2 4 5z" fill="#f0f2e9" stroke="#f0f2e9"/>
  <path d="m780 208q2 0 3 2 0 2-3 2-2 0-2-2-1-2 2-2z" fill="#d1d5be" stroke="#d1d5be"/>
  <path d="m650 289l1-1h3l10 6q10 5 14 8 4 2 9 10t5 20q2 12 1 26-1 13 0 18v5q0 1 1 1v4h1v1h1v2l4 7q4 7 4 8 0 2-4 2-3 1-3 4l-1 4-1 1h-1v-7h-1v-1h-1v-1h-1q-1 0-4-3-3-2-12-6-8-3-16-4l-8-1v-2h2v-1h1v-1h-1v-1h1v-1h-1v-1h-1v-2h2v-2h6q6 1 6 1h1l1-1 1-1h1v-5h-2v-5l-1 1-1 1v-1h-1v-1h-1q-1 0-2 2-1 0-6 1l-4 1v-1h2l3-1h1v-8l-1-1q-1-1-1-2t-1-1-1-1-3-3-9-9-9-14-3-15q0-7 5-14 5-8 9-10l3-3q1 0 1-1 0 0 1 0v-1h1z" fill="#e6ebdb" stroke="#e6ebdb"/>
  <path d="m107 592l1-2v3q-1 3 1 3 3 1-1 5t-4 6v5l-1 2v2h2v-1h-1v-1h2l2-1q2-1 2-2t1-1q1-1 0-2 0-1 4 1 4 1 7 1 2 0 4 0h2v-1h1v-1h2l1-1h1l3-1q3 0 8-2t14-2 13 2 9 11q4 9 4 11-1 2-4 6t-3 4h-1v1h-1v1h-1v1l-1 1h-138v-1h9v-1q0-1 2-2 2-2 4-1 2 0 2 2t7 2l7-1h1v-1h1v-1q0-1 1-8 1-8-1-10l-2-3v-1h-1v-1h-1v-2h1l1 1 1 1v1h6v-1h1v-1h1l1-1 2-1v-7h-1v-1h-2v-2h2v1h1v1h1v1h1v1l2 2q1 2 2 2t2 1q0 1 2 1 3-2 4-2h1q1 0 2-3t2-3 1 0q0-2 0-3v-2h1l1-1-1-1v-1h2v3l1 3 1-2 1-1v-1q0-2 1-2t2-2z" fill="#e9ede0" stroke="#e9ede0"/>
  <path d="m782 187q2 0 2 3 0 2-3 2-2 0-2-2 1-3 3-3z" fill="#d0d7bc" stroke="#d0d7bc"/>
  <path d="m31 229l1-1 6 1q5 1 10 1 6 2 11 2t7 3 3 3v2h1v10l-1 4q-1 5-5 10-2 4-3 4v1q-1 0-1 1l-4 3q-5 3-6 4l-1 1h-3l-1 1-1 1h-3v-1l1-1v-2h1v-1h1v-1q0-1 4-6l2-6v-7h-1v1h-2v1h-1v1h-1v1h-1v1h-1l-6 8q-5 7-6 7v1h-1v1h-1v1h-2v1h-1v1h-2v1-6l1-1q1-2 1-5l1-3h1v-12q0-7 0-15v-8h1v-1h1l1-1z" fill="#c5cfac" stroke="#c5cfac"/>
  <path d="m403 314h1l2-1h2v3h-1v1h-1v2h-1l-1 1h-1l-7 5q-6 5-9 9-3 5-2 10 1 6 4 11t4 5v1q0 1 1 1 0 0 0 1h1l-3 4q-2 3-3 4-1 0-3 6-3 5-4 6 0 1-1 5t-3 4h-2l-7 1q-7 1-13 4-7 3-12 5-6 2-8 5t-2 14 4 22 5 13l1 1v7h-3l-1-1-1-1h-1v-1l-1-1-1-1v-1t-6-10q-4-11-10-17-6-5-12-6-5-1-8 1-2 0-10 2-7 2-10 3-2 1-4 5l-3 4q-1 0-1 0v1t-2 1h-1v1h-1v1l-1 1-1 1v-2h-1v-1h-1v-1h-1v-1l-1-1v-4q0-3 0-10 0-8 2-11t6-3 8 2l4 2h3v-1h1v-1q1 0 1-1 1 0 1-2v-2l1-1v-1h2l2-1h2v-2q-1-1-5-9l-4-8v-3l-1-2-1-2v-2h1v1h1v1h1v1h1v2h1v1h1l1 2q1 2 1 0 1-2 2-2h2v3h1v1h-1v2h2v2h-1l1 1h2v-4l-1-1-1-2v-3q0-3 0-7 0-3 2-11t5-14q4-5 9-9 4-4 9-7t13-5q8-3 8-4t3-2h2v-1q1-1-1-4l-2-3-1-1v-1h2v1l1 1v1h1v1h2v1h1l4 5q4 6 13 6t17-5 10-7q3-2 4-2h1v-1h1v-1h1z" fill="#f3f4ed" stroke="#f3f4ed"/>
  <path d="m579 166h6l1 1 1 1h1v6q0 4 0 7t-4 12-12 16-15 9l-7 2h-15q-8 0-9 2-1 0-3-1l-2-1h-1v1h-1v1h-2v-1l1-1v-1l1-1v-2l1-4q2-4 3-6t3-2 2-1 4 0 8-1q4-3 5-4 0-1 1-2 2 0 2-1t1-1 0-1 1-1q1-1 1-2 0-2 1-2t1-1l-1-1h-2q-1 0-2 0v-1l1-1h1l9-8q9-8 11-8 3-2 9-2z" fill="#e6ebdc" stroke="#e6ebdc"/>
  <path d="m489 275h2q0 1 1 1v2q0 1-2 1-2 1-2-2-1-2 1-2z" fill="#dcded1" stroke="#dcded1"/>
  <path d="m68 293h2l4 1q5 2 10 7 4 6 6 11t2 10q-1 6-5 10t-8 6q-3 2-6 6t-9 4q-5 0-9-5-5-4-9-9-4-6-4-7v-1h-1v-1h-1v-1h-1l-1-1-2-1h-2v1l1 1 1 2v2l2 4q0 3 0 10t-5 12-5 6-8 2q-9 0-12 2-2 0-3 1l-1 1h-3v-4l-1-5v-3l1-12q1-11 2-12h1v-1h1v-1h1v-1h1v-1h1v-1h1v-1h3l2 2q0 3 1 5l1 2v2h1v-1h1v-1h1v-1h1v-1l1-1 1-2v-2q0-1 0-6 0-4-1-8l-1-4-1-1-1-1v-2h3l2 1 2 1 10 5q10 5 12 7 1 1 2 1v1h2v1h1v1h2l2 1h1v-1l-1-2v-2q0-1-2-4l-2-3h-1v-1h4q3 0 5 0h3l1 1h1v-1l-1-1v-1h-1l-1-1-1-1h-1v-1h-1v-1h-1q-1 0-4-2l-4-2h-4v-1h-1v-1h1l10-2q9-2 12-3z" fill="#c4cfab" stroke="#c4cfab"/>
  <path d="m360 159v18l-1-1-1-1v-3l-1-1-1-1v-12q-2-13 0-28 2-16 3-19 2-3 5-3 2 0 3 3t-3 19q-4 15-4 29z" fill="#c8d2b2" stroke="#c8d2b2"/>
  <path d="m0 90v-12h1v6q0 7 3 7 2 1 3 1h1v2l-4 3q-3 3-3 5v1h-1v-13z" fill="#edf2e4" stroke="#edf2e4"/>
  <path d="m773 2l-1-2h55v97q-1 0-1-1 0-2-6 2t-8 6q-1 2 0 2h2l6 1q6 0 6-4t1-4v82q-1 0-1-19 0-20-6-22-7-2-20-9-14-7-13-5 1 3 6 12 6 10 7 10t1 1 1 1 3 4l3 3v1l1 1 1 1v5h-2l-3-1h-2l-1-1-1-1h-1q-1 0-7-7l-7-6v-1h-1v-1h-1v-1h-1v-1h-1v-1h-2v8l4 8q2 8 9 15 6 7 9 10 4 3 8 4t10 2q6 0 6-4t1-4v50h-1v-3q0-3-2-4-1 0-14-2-14 0-17 1t-4 5-3 7l-2 3v1h-1v1h-5l-1-1q-1-1-2-4-2-3-5-5-2-2-17-3-14-1-19 1-6 1-7 4-1 2-3 7-1 5-9 4t-10-3-5-2-6 1-4 5q-2 3-5 3-3 1-4 5l-1 5v3-7q0-7 3-9t4-5 4-6 3-6-2-5-2-10q0-7 4-14 4-6 4-7 1-1 3-1h2v-2q-1-1-1-2v-1h1q1 0 1 1t12 1q13-1 21-4 9-3 11-6 4-3 4-15 2-12 2-14v-9 1h-1v1h-1v1h-1v1h-1v2h-1q0 1-5 5l-5 6h-1l-1 1-1 1h-3l-1 1h-1v-1l1-1v-2l2-3q2-2 2-4v-1l1-1 1-2v-1h-1v-1h-2l-1 1q-2 1-10 1l-7 1v-1l1-1v-1h2v-1h1v-1h1l11-9q11-8 12-9 1 0 1-1t2-3q3-2 3-3h1v-1h1v-1h1v-2h1v-1h1v-2h-1v-1h-1v1h-4q-5 0-10 0-6 0-13-4l-7-3v-1h-1v-1h-1v-1h-1v-1h-1v-1h-1v-1h-1v-1h20v-3l-1-1-1-1q0-1-3-6l-3-5v-6h4v1h1v1h1v1l5 6q5 5 11 8 5 3 8 3h3l2 1h2v-3l-1-3v-2q0-2-2-9-2-6-2-15t0-13l2-4v-2l1-1 1-1h5v1l1 1v2l1 1 1 1v2q0 3 1 11l1 8v-2h1v-1h1l2-2q2-2 2-3v-1h5v1l1 1v2q0 3-2 6v5-1l2-1q2-1 3-1h1v6q0 1-2 5l-2 4-1 1-1 1v1l-1 2v1h1l1-1h2l1-1 1-1h1l1-1q1-1 5-3 3-2 10-9 6-7 10-14t4-15q0-7-1-8-1-2-6-4t-9-7q-4-4-9-9-5-4-11-6l-5-2h-1t-2-1h-1v-1q-1-2 0-4 1-3 0-4zm26 92h1l4-3q4-3 11-9 7-7 9-9t2 9q0 10-1 10t-6 0q-5 2-13 2-7 0-7 0zm-33 77q-2-4-2-25 0-20 2-28 2-9 5-10 2 0 3 0t1 8q-1 7-3 16-2 10-3 27t-3 12zm34-55l-3-3 5 1q5 2 12 2t10-1h2v7q0 7-2 7l-2-1h-2q-1 0-10-5-8-5-10-7zm-18 71q2 0 2 3 0 2-3 2-2 0-2-2 1-3 3-3zm-14 1q1 0 2 0 2 0 2 2t-2 3q-3 1-3-2t1-3zm19 10q3 0 3 2 0 3-3 3-3 1-3-2t3-3zm-19 3q3 0 3 2 0 3-3 3-2 0-3-2-1-3 3-3zm12 7q2 0 3 2 0 2-3 2-2 0-2-2-1-2 2-2z" fill="#f8f9f5" stroke="#f8f9f5"/>
  <path d="m373 154l-1-7-1-1v-2h3v1h1v1h1v1h1v1h1l6 7q7 7 8 7h1v1h1v1h3l2 1h2v-3l-1-3v-1l-1-1-1-1t-6-7q-6-6-10-15-5-10-2-8 4 1 15 7 12 7 23 8t18 4q6 3 6 9t-4 12q-5 6-6 12-2 6-5 9-4 3-13 3-8 0-12-1-5-1-12-7-6-6-11-13t-6-15z" fill="#c5cfab" stroke="#c5cfab"/>
  <path d="m827 523v44h-1v1q0 2-6 2t-9-2q-3 0-10-5t-9-7q-2-3-5-10l-4-6q-1-1-1-1v-3l-1-2-1-2v-9h2l1 1h1v1l1 1 1 1v1l7 6q7 6 8 7l1 1h2l1 1 1 1h4v-5l-1-1-1-1v-1l-4-4q-3-5-6-8-4-3-8-10-4-8-4-10 0-1 5 2 5 2 15 7t15 7q5 1 5 2t1 1z" fill="#c5d1ad" stroke="#c5d1ad"/>
  <path d="m357 201l1-1 2 1q2 1 2 3t-3 2-3-2 1-3z" fill="#d1d7c0" stroke="#d1d7c0"/>
  <path d="m770 567q2 0 2 2 0 3-2 3-3 0-3-2 1-3 3-3z" fill="#d3dac5" stroke="#d3dac5"/>
  <path d="m430 296h-7v-1h-1v-4h1l1-1h2l18-2q18-2 25-4t-1 2q-9 4-20 7-12 3-18 3z" fill="#ccd5b8" stroke="#ccd5b8"/>
  <path d="m770 487v-1h4v1h1v1h1l-1 8q-1 7-3 16-2 10-3 20v16l-1 7v-1l-1-1-1-1v-3l-1-2q-1-2-1-7l-1-4v-12q1-11 2-22l1-10 1-1 1-1v-2h1v-1h1z" fill="#cad4b5" stroke="#cad4b5"/>
  <path d="m34 528v6q-1 6-2 7 0 1-1 1v1q-1 0-1 1l-3 4q-3 4-5 10t-5 8-5 3l-2 1h-8v-1l-1-17q-1-18-1-18v-6l1-4q0-4 11-3 12 1 17 4 5 2 5 3z" fill="#c4cfaa" stroke="#c4cfaa"/>
  <path d="m643 402h1l-1 4q-1 4-10 14-9 9-11 15-4 6-3 15t4 22q3 12 4 16 0 3 5 3h5q0 1-5 2-4 1-5 7t-3 8 0 4q0 1-1 5-1 3-3 5t-6 2q-3 0-4 2-2 2-6 3t-7 1-9-5q-6-4-6-5t-2-1q-2 1-4 3-2 3-17 18l-15 15v1l-1 1-1 1v3h-1v1h1v1h1v1h3l1-1 1-1h1l9-7q8-7 12-8 3-1 9-1h8v1h1l-1 9q-1 8-4 15t-9 13-12 10q-5 2-9 3t-7 1h-3l-7-1-7-1h-2v-1h1v-1h-3v-1q1-1 2-2t2-3l1-2h-2v-1h-1v-1h-2v-1h-1v-2h-2v2l-1 1-1 1v1t-1 0v1h-1v1h-1l-1 1v-3q0-2 1-4l1-1v-1h1v-1h1v-1h-2q-3 0-3 1t-1 1-4-8q-3-7-6-9-2-1-12-7-10-4-10-6-1-1-2-1-1-1-2-2 0-1-2-1t-4-3l-3-3v-7q1-7 1-8t1-3q0-2 11-3 12-1 17 3t9 9 5 5v1h1v1l1 1v1h3l1 1h1v-9q0-1-8-16-8-16-8-27t3-17 9-6q7 0 15 2 8 4 17-2 10-4 11-8l1-4 1 1 1 1v2h1l4 8q4 8 11 6 8 0 16-4t12-9 4-5v-1h1v-1h1v-2l1-2 1-3v-14q2-14 4-18 4-4 6-6 3-3 8-4 4-1 7-1t4 0z" fill="#ebeee2" stroke="#ebeee2"/>
  <path d="m351 522l1 3v1l1-1 1-1 1 10q1 10 1 12v2l2 4q2 4 2 0t0-5l1-1v-1h2v-2q1-2 1-2 0 1 1 0t1 1q0 1 2-3t3-4h1v1q0 2 1 2 0 0 1 1l3 7q3 6 11 13 7 7 12 9t11 2h6v3h-1l-1 1h1l-2 2q-2 2-2 5-1 3-2 4-2 1-1 7 1 5-1 7-1 3-1 3h-1v1h-11q-11 1-13 1-1 1-3 8-3 6-7 10-4 5-4 7v8h1v1h1l4 1h5v1h-109l-2-1-2-1v-4h1v-1h1v-1q0-1 1-2 1 0 1-2 1-2 4-3t4-4q2-2 4-4 3-3 8-3 4 0 4-3 0-4 5-9 5-4 7-12 0-8-2-12l-4-4v-1h1v-1h1v-2h2v-1h2q2-1 8-1 5 0 13-3t12-7q5-4 5-14 0-11 2-16v-4l1-2v-1l1 1q0 1 2 0 0-2 1 0zm19 46q0-2 2-3 3 0 3 3-1 3-3 3t-2-3zm-9-1q3 0 2 3-1 2-3 2t-2-2q0-3 3-3zm17 10q3 1 3 3t-3 2-3-3q1-2 3-2zm-19 3q3 0 3 3t-3 2q-3 0-3-3 0-2 3-2zm10 9q0-3 3-3 2 1 3 2 1 2 0 3 0 1-3 1t-3-3z" fill="#f6f8f2" stroke="#f6f8f2"/>
  <path d="m369 589q0-3 3-3 2 1 3 2 1 2 0 3 0 1-3 1t-3-3z" fill="#d1d9be" stroke="#d1d9be"/>
  <path d="m774 393l7-2 6 4q6 3 11 10 6 7 13 10t7 6q2 3 1 9-1 5-5 13t-13 15q-8 8-10 9t-3 2l-1 1h-2l-1 1-1 1h-1l-1 1h-1v-2l1-1 1-1v-1l1-1q1-1 3-7l2-5v-5h-1q-1 0-3 2l-2 1v1-5q0-1 1-3l1-3-1-1-1-2h-4t-2 3l-2 3h-1l-1 1h-1v-7q-1-6-1-10l-2-5v-2h-1v-1h-1v-1h-1v-1h-3v2h-1v1h-1v3l-2 4q0 4 0 14 2 11 3 18 1 6 2 9v3h-4l-3-1q-4-1-10-3-6-4-10-8l-3-4v-1h-1v-2h-1v-1h-1l-2-1h-2v6l1 1 1 1 2 5q2 4 3 4v1h1v3l-2 1q-3 1-10 0h-7v1l1 1v1h1v1h1v1h1v1h1v1l6 2q5 4 7 4t11 0h12v3h-1v1h-1v2h-1v1h-1v1t-4 4q-4 3-15 12l-11 8v1h-1v1h-1l-1 1-1 1h-1v1h1v1l6-1q7-1 8-1h6v2l-2 4q-2 3-2 4v1l-1 1-1 1v2h2l1-1h2l1-1 1-1h1v-1l3-1q2-2 4-4 1-3 2-4l1-1v-1h1v-1h1v-1l1-1v-1h2v4l-1 4v2q0 2-1 4v7q1 4 1 5 0 2-2 7t-4 6-7 4-17 4l-11 2h-2q-2-1-4-1t-7-5q-6-5-8-12-2-8-7-13t-5-10q0-6 4-9t20-7l17-6h1l1-1 1-1h1v-1h1v-1l1-1v-1h-5q-6 0-14 0-8-2-14-4-7-3-9-7-1-4-4-7-3-2-3-5t1-5q1-3 2-9t-1-10q0-4 1-9l1-6t1 0v-1l4-4q4-3 12-5t10-2q2-2 8-1t12 6q5 6 11 17 4 10 5 11l1 1v1h1v1h1v1h1v1h4v-2l-1-2v-4l-1-2q-1-2-5-11t-4-21q0-13 3-16t7-4q5-2 10-4 6-3 12-5z" fill="#c4cfaa" stroke="#c4cfaa"/>
  <path d="m191 325l3 1h3l1 1 2 1h2l2 1q2 1 2 1v1q0 1 3 5t1 4 0 2 3 4q1 3-1 2-2-2-7-3t-7-2-8-4-6-4 1-1 2 0q1-1 1-2-1 0-5 0-4 2-3 2t1 1q-1 1-3 1t-4 0l-3 1v2l1 2v2h1v1h1l2 4q2 4 12 9 10 6 17 10t8 5q0 1 1 1t2 3q0 3 0 5-1 3 0 2 0-1 0 2-1 3-1 3h-1v2h13q13 0 18 0h5l13 6q13 6 16 8t4 2h1v1h1v1h1v3l1 1v1h-1v2h-1v1h-3l-4-2q-4-2-8-2t-6 3-2 11q0 7 0 10v4l1 1v12q-1 11-2 16-2 5-5 9-4 4-11 7t-9 4-3 1h-3q-3 0-7 0t-6-7q-1-8-3-19 0-11 0-20 2-10 3-13t4-4q2-1 3-4 2-3 6-5 5-3 5-4 1-2 2-2 1-1 1-2v-10l-1-1-1-1h-4q-4 0-10 2-6 4-10 8-5 4-6 6-2 3-3 20-1 16-5 22t-10 10-12 6q-5 2-10 2-6 0-8-5-3-5-3-6h-1v-2l-1-1-1-1v-1q0-2-1-3t-1-7 2-12q2-5 8-10l4-6 1-2 1-1v-6h-1v1h-2v-1h-1v1h-1l-1 1-1 1h-1t-3 2-15 16-20 18q-9 4-23 5t-18-1q-4 0-5-3-2-2-2-9l-1-7v-3q1-4 2-9t6-11l5-5v-1h1v-1h1q0-1 2-2 3-1 3-3t1-2 1-1 3-1l4-1v-2h-1l-1-1t-2-2q0-1-4-5t-6-9l-2-4 6-5q6-5 14-7t17-2 31 9q21 9 28 9h7v-1h1v-4l-1-1-1-1v-1h-1v-1h-1v-1h-1q-1 0-11-5t-17-11-9-12l-2-5v-1l1-2v-1l11-2q12-3 22-3t13 1zm-89 69h1-1zm136 54h-5v-1h-1v1h-1l-1-1h-1v-7q-1-6 2-12t7-12 11-8q7-3 7 1-1 5-2 7 0 2 0 6t0 10-2 6q-2-1-3 2-1 4-3 4-1 0 0 1t-2 2q-4 1-4 1t-2 0z" fill="#e3e9d8" stroke="#e3e9d8"/>
  <path d="m0 573v-39t1 18l1 17v1h8l2-1q2-1 5-3t5-8 4-10q3-5 4-5h1l1 3q2 4 4 5t2 2l-1 1h-3q-3 1-4 9 0 8 2 15 3 6 10 10 6 4 18 8 13 4 14 4h1l1 1v1h1v1h1v7l-2 1-1 1h-1v1h-1v1h-3q-3 0-4-1v-1t-1 0q-1-1-1-1h-1q-1-1-5-1t-10 0q-5-2-11-2h-8v1h-1v9q0 8 1 11v3h-1v2h-2v1h-1v1h-2v-2l-1-1v3h-1v-1h-1v-5q0-5-1-5v-3q-1-3-1-4 0-2-4-6l-2-4h-1l-1-1q-1-1-3-1l-2-2h-4v8h-1v-39z" fill="#f6f7f1" stroke="#f6f7f1"/>
  <path d="m777 241l1 1h4l-3 4q-3 5-2 9t4 7q4 2 14 6t11 4q0 1 1 1v1h2v1h1v1h1l1 1 1 1h1v-4h-1v-1h-1v-1q0-2-2-4l-1-2h-1v-2l-1-2v-1l5 2q4 1 6 3 2 1 1-7t3-6 4-9v-11h1v123h-1v-29h-1l-1 1h-1t-3 2l-2 2h-5v-1l1-1v-2h1v-1h1v-1h1v-1q1 0 3-3 2-2 2-10v-8h-4l-1 1q-1 1-11 5t-18 5l-8 1v-5h1v-1h1v-1h1v-1l5-2q5-2 7-2h2v-1h1v-1h-2q-2 0-4-2h-1v-1h-1v-2h1v-1h5q4-1 3-4-1-2 5-2 5 0 7 0h2l1 1h2v-2h-1l-1-1h-1v-1h-1v-1h-2v-1h-1q0-1-1-1 0 0-10-5t-16-5q-7 0-12 2-4 2-5 6-1 5-7 12-4 7-5 12-1 4 1 7l2 3t0 1h1q0 1 1 1l1 2q1 2 1 3v1l1 2v2h2v2h-2v-1h-1v-1h-2q-2 0-2-1t-1-1q-1-1-1 0t-2 1q-2 1-12 5-11 4-17 8-6 6-10 12-5 7-5 17-2 10-1 15l1 5v2h-3v-1l-1-1v1h-2l-1-1-1-1h-1v-1h-1v-2h-1v-1h-1v-1h-1q0-1-1-1 0-1-1-1v-5q-1-5 0-18 1-14-1-26 0-12-5-20t-9-10q-4-3-14-8l-10-6h-3v1h-1v1h-1l-1 1h-1v-1l1-1v-1h2v-1h1v-1h7q8-1 14 2 6 2 7 3t5 3q3 2 6 6 2 3 3 5v2h1l1-1h1l3-7q4-7 5-7t2-1l1-1h1l1-1h1v-3h-1l-11-1-11-1h-1l-1-1-1-1h-1v-1h-1v-3 1h1v1h10v-1h1v-2h-2l-3-1h-1q-2 0-4-3t-2-7q0-3-1-4h-1q0-1 0-1v-2l1-5q1-4 4-5 3 0 5-3 1-4 4-5t6-1 5 2 10 3 9-4q2-5 3-7 1-3 7-4 5-2 19-1 15 1 17 3 3 2 5 5 1 3 2 4zm-75 146q-1-1 0-1 2 0 2 1t-1 1-1-1z" fill="#f5f7f1" stroke="#f5f7f1"/>
  <path d="m571 409v-1h7v1h1v1h1v3l-2 2q-2 2-2 3v1h-1l-1 1-6 8q-6 7-8 13t-1 9q1 2 1 3v1l-1 4q-1 4-11 8-9 6-17 2-8-2-15-2-6 0-9 6t-3 17 8 27q8 15 8 16v9h-1l-1-1h-3v-1l-1-1v-1h-1v-1q-1 0-5-5t-9-9-17-3q-11 1-11 3-1 2-1 3t-1 8v11q1 5 1 6v1h-1q-1 1-13 1l-12 1h-2q-2 0-4 7t-1 10v2q-1 0-2-4-1-5-4-4l-2 1v-1q1 0 1 0t1-7q1-6 6-11 4-6 5-9 2-3 0-7 0-4-3-5t-15-3q-13-2-23-7t-17-8q-7-4-4 3 2 6 10 15l8 9v1l1 1 1 1v1l1 2v3h-1l-1 1h-2l-1-1-1-1h-2v-1h-1v-1h-1q-1 0-7-6l-6-6-1-1-1-1v-1h-1v-1h-1l-2-1h-1v3l1 4v2q0 2 1 4l1 1v2h-1q-1 0-2-1-1-2-1 0t-1 2-1 1q-1 1-2 0 0-1-1 0t-1 2l-1 2h-2v1l-1 1v-11q0-10 4-26l4-17v-2l-1-1-1-2v-1h-1v-1h-4v1h-1v1l-1 1-1 1v3l-2 7q0 6-1 14l-1 8v2l-1 1-1 1v-1l-1-3q-1-2-1 0-2 1-2 0l-1-1h-1v-1h-1v1h-1v1h-1v1h-1v2h-1v1l-4 4q-5 4-5 4v1h-1v1h-1l-1 1-1 1h-5 1v-2l1-1q1-1 2-5l1-3 1-2v-2h-2l-2 1h-1q-2 0-5 1l-3 1h-6v-1h-1v-1h1v-1h1v-1h1l1-1 1-1h1l1-1q1-1 5-3 4-4 13-12l10-8v-2h1v-1h1v-2l1-1v-2h-12q-9 0-17-3l-7-3v-1h-1v-1h-1v-1h-1v-1h-1v-1h-1v-2h1l1-1h1l5 1q6 1 9 0h3v-3h-1v-1h-1v-1t-3-5l-3-5v-7h1l1 1h2v1h1v1h1v2l6 6q6 6 10 7t7 2l3 1h4v-6q0-1-2-8-2-6-2-20v-14l1-1 1-1v-2h1v-1h1v-1h3v1h1v2h1v1h1v3l1 2q1 2 1 10v8h1l1-1h1v-1q1 0 3-3l2-2 2-1h2v6q0 4-1 5l-1 2h2q2-1 3-1 0-1 1-1h2v6l-3 5q-3 5-3 6v1l-1 1-1 1v1l-1 1v1h1l1-1h2l1-1 1-1h1t1-1h3l2-1h1v-1h1v1h1l1-1 2-1h4v2h-1q-1 1 0 2-1 0-1 0v1t-1 1h-1v2l8-1q8-1 10-1h1l3-1h4v3h-1v1h-1v1h-1v1h-1q0 1-3 2l-3 1v1h-1v1h-2v1h-1v1h1l1 1 1 1h5q5 0 10 1h4v2h-2v2h-1l-1 1h-2l-2 1q-1 1-10 1h-10l-2-1-3-1h-3v2h1v1h1v1h2v1h1v1h2l8 4q8 4 15 7 8 3 18 2 9-1 14-4 6-3 9-7t3-10q2-5 4-10 4-5 2-10 0-5-5-8-5-4-8-6t-3-2q0-1-1-2v-7l1-1t5-3q4-3 9-5 4-4 6-3 1 0 1-1l1-1v-1h1v-1h1v1l2 4q0 4 1 6l1 3v3h1l1 1 2 3q1 2 14 4 12 0 21-2 9-3 16-8 6-4 15-16 10-11 14-14 4-4 5-4h1v-1h1z" fill="#f9faf6" stroke="#f9faf6"/>
  <path d="m766 171q-2-4-2-25 0-20 2-28 2-9 5-10 2 0 3 0t1 8q-1 7-3 16-2 10-3 27t-3 12z" fill="#c9d3b2" stroke="#c9d3b2"/>
  <path d="m240 24v2q0 1 0 1v1q0 2-10 11-11 9-13 13-1 5-2 8 0 2 0 20 1 17 2 24 2 8 5 8 2 0 4 0h1l3-1h2v1h-4v1h-1v1h-1q-2 0-4 1-3 1-4 12 0 11-2 14t-4 4-6 1q-4-1-5 2-1 4-7 4-7 0-10-2-2-2-8-5t-8-2l-2 2v2h-1v1h-2v-1l1-1v-1h1v-1h1v-2q0-2 1-9t-1-12l-2-5h-5q-4 0-5 0t-6 6q-5 4-7 11l-3 6v1l-1 1-1 1-2 1h-1v-1l1-1v-3h1v-1h-1v-2l1-3q1-2 1-16 0-13-5-18t-10-8l-5-4v-1h-1v-1q-1 0-2 0l-1-1v-2h-1v-1h1l1-1 1-1h1q1-2 1-2h1v-1h1v-1h1v-1h1v-1t1 0v-1q1 0 1-1l7-6q7-6 14-16 8-10 11-12 4-2 6-3l1-1h9l1 2v1h-1v1h-1v1h-1v1h-1v1h-1q0 1 0 1-1 0-1 1h-1q0 1 0 1l-6 7q-6 7-6 9-2 2-1 10 1 7 6 17 5 11 14 9t15-6q7-4 10-8 2-3 3-6t0-4v-2h1v-2l1-4q1-3 1-12 2-10 3-14l2-5q1 0 1-1 0 0 1 0v-1q1 0 1-1l8-5q7-5 12-5 6 0 7 2 1 1 2 2 1 2 1 2z" fill="#f5f7f1" stroke="#f5f7f1"/>
  <path d="m206 331l7 5q7 4 12 13t9 15q3 6 4 6 0 0 0 1h1v1h1t0 1h1v1q1 0 1 0l4 1 3 1h-1v1l1 1v1h-1l-1 1h-1v1h1v1h-2q-2 0-5 0h-2l1 1 1 1v1h1v1h1l2 1q1 1 2 1h2l1 1 1 1h-5q-5 0-18 0h-13v-2h1t1-3q0-3 0-2-1 1 0-2 0-2 0-5-1-3-2-3t-1-1q-1-1-8-5t-17-10q-10-5-12-9l-2-4h-1v-1h-1v-2l-1-2v-2l3-1q2 0 4 0t3-1q0-1-1-1t3-2q4 0 5 0 0 1 0 2-2 2 5 6t12 5 7 3q2 1 1-2-1-2-3-4t-1-4q1-1-1-4-2-2-2-3z" fill="#ebefe2" stroke="#ebefe2"/>
  <path d="m125 472h1l1 1h1v2h1l1 1 3 5q3 6 2 15-1 10-3 15t-2 9v3l1 1 1 1v1h4q1 1 0 5-2 5-3 6t-2 1v1h-1v1l1-1q1 0 1 2v3l-2 5q-2 6-2 7 1 0 0 1-2 1-2 0t-3 1-5 8q-3 6-3 5-1 0-1 1v2t-1 0v1q-1 0-1 1h-2v1h-1v1h-1v2h-2l-1-1h-1v-1q0-1-2-6-2-4-6-7-3-3-14-7-10-4-16-11l-6-6 1-9q1-9 1-10 1-2 14-2t18 5q6 5 8 9t2 4h1v1h1v1h1v1h1v1h4v-1h1v-1h1v-4q0-5-4-11l-4-6v-2h-1v-1h-1v-1h1v-1h1v1l1 1q1 2 2 2h1v-1h-1v-1h1v-1h-1q0-1 0-1 1 0 1-13v-13h4q4 0 7 0h3v-3h1v-1h1v-3h-1v-1h-1v-1l-1-1v-1h-1q-1-1-2-1t-4-2l-2-3-4-1q-3-2 2-2 6 0 9 2t4 2z" fill="#e4e9d9" stroke="#e4e9d9"/>
  <path d="m486 252h1l1 1 1 1h-2v1l-1 1v1h-1v1h1q2 0 3 3t2 3q1-2 3-2t2 1v4h-1v1h-1 2l1 1v1h-3v1h1v1l-2 1q-1 1-1 1 0 1 0 4v3l-4 1q-4 2-4 4 1 2 2 3 0 1-1 2t-1 1q0 1 1 2h-1q-1 0-6 0t-10 1l-6 1-4 1-3 1h-1v1h1v1h3l4 2q4 2 5 2h1v1h1v1h1v1h1v1h2v2l-1 1v-1h-3q-3 0-6 0h-4v1h1v1l2 2q2 2 2 4v1l1 2v2h-1l-2-1h-1v-1h-1v-1h-2v-1t-2-1-11-6l-10-6h-2l-1-1-2-1h-2v1h-1v1h1v2l1 2q1 1 1 7 2 6-1 12-2 6-3 6-2 0-3-5-1-6-3-6-2-1-4 2-2 2-6 4-5 2-5 0 1-1 3-4 2-2 4-7t2-10q-1-5-14 0t-22 6q-8 0-7-3 1-2 9-6 8-3 6-4-2-2-3-4 0-2 5-2 4-1 3-4-1-2 6-2h11-1v-1h-1v-1h-1l-1-1-1-1h-1l-1-1q-1-1-8-5l-7-4v-2h-1v-1h-1v-2h2v-2h1l1-1h1l4 2q4 2 5 3l1 1h1v1h1v1h1l1 1 1 1v-6l-1-1q-1-1-2-3l-1-3-1-1-1-1v-1h4l3 2q3 2 3 2h1v1h1v1h2v-3q0-3-2-7v-3l-1-1v-2h3v1h1v1h1v1h1v1h1v1l2 3q2 4 2 7v3l1 2v1h1l1-1h1v-3l1-1 1-2v-2q0-2 1-9l1-7 1 2 1 1v-2l1 1 1 2v-2l1-1 1-1v1l1 1 1 1v-1h2l-1 10q-1 9-2 10-1 2-1 3v1l-1 2-1 1v3h2l1-1 1-1h1l1-1 1-1h1l6-8q6-8 6-8l1-1v-1h2v-1h1v-1h2v-1h1v1h1v6l-1 1-1 1-2 4q-2 5-3 5v1h-1v2h-1v1h-1v3h3l1-1 1-1h3v-1h1v-1l5-3q6-4 10-11 4-8 5-10v-2h1l2-1q1 0 1-1t1-1 1 2q0 3 1 3zm3 17v-1h2v1q0 1 1 1t0 1-2 0v-1l-1-1zm-2 8q0-2 2-1 3 1 2 2 0 2-2 1-1 0-2-2zm-57 19h-7v-1h-1v-4h1l1-1h2l18-2q18-2 25-4t-1 2q-9 4-20 7-12 3-18 3z" fill="#f7f9f3" stroke="#f7f9f3"/>
  <path d="m284 352v28l1 2 1 2v3l4 8q4 8 5 9v2h-2l-2 1h-2v1l-1 1v5h-2v-2h1v-1h-1v-3h-1v-1h-1v-1h-1q-1 0-4-2t-16-8l-13-6-1-1-1-1h-2q-1 0-2-1l-2-1h-1v-1h-1v-1l-1-1-1-1h2q3 0 5 0h2v-1h-1v-1l1-2 1-1v-1h1l-3-1-4-1h-2v-2h2v1h1v1h3l2-1 1-1h1v-6l-5-6q-4-6-5-7 0-1-1-1t-6-6q-5-5-9-13t-4-15q0-6 6-14t11-12 13-1q7 3 16 9 10 7 13 14 3 6 4 8 1 3 1 30z" fill="#e6eadb" stroke="#e6eadb"/>
  <path d="m359 580q3 0 3 3t-3 2q-3 0-3-3 0-2 3-2z" fill="#d2d9bb" stroke="#d2d9bb"/>
  <path d="m361 567q3 0 2 3-1 2-3 2t-2-2q0-3 3-3z" fill="#d6dac3" stroke="#d6dac3"/>
  <path d="m812 314h1l2-1h2v1l-1 1v2h-1v1h-1v1h-1v1h-1l-6 5q-6 5-7 6 0 1-2 3-3 2-3 7-2 5 5 14t13 11q5 0 8 0 3-2 4-2h2v-8h1v108l-1-8q-2-7-7 0-6 8-13 12t-6 5 13 0 12-1q-1 1-2 2-1 2-7 5-5 3-5 5 0 1 1 1l2 1h4q5 0 6 0h1v1q1 0 1-2l1-2v14q-1 0-1-1 0-2-4-2t-15 0l-11-2 9 6q9 6 15 8t6 0q0-1 1-1v18q-1 0-1-1t-5-2q-5-2-15-7t-15-7q-5-3-5-2 0 2 4 10 4 7 8 10 3 3 6 8l4 4v1l1 1 1 1v5h-4l-1-1-1-1h-2l-1-1q-1-1-8-7l-7-6v-1l-1-1-1-1v-1h-1l-1-1h-2v9l1 2 1 2v2l1 1v1h-2v-1l-1-1q-1 0-2-2l-2-1v-1h-2l-1 3q-1 2-2 3l-1 2v-1h-1v-9q1-10 3-20 2-9 3-16l1-8h-1v-1h-1v-1h-4v1h-1v1h-1v2l-1 1-1 1-1 10q-1 11-2 22v12h-1v1h-1v-1h-1v-1h-1v-1h-1v1l-1 1-1 1v-2h-2v2h-1v-3q1-2 1-4v-2l1-4v-4h-2v1l-1 1v1h-1v1h-1v1l-1 1q-1 1-2 4-2 2-4 4l-3 1v1h-1l-1 1-1 1h-2l-1 1h-2v-2l1-1 1-1v-1q0-1 2-4l2-4v-2h-6q-1 0-8 1l-6 1v-1h-1v-1h1l1-1 1-1h1v-1h1v-1l11-8q11-9 15-12 4-4 4-4v-1h1v-1h1v-2h1v-1h1v-3h-12q-9 0-11 0t-7-4l-6-2v-1h-1v-1h-1v-1h-1v-1h-1v-1l-1-1v-1h7q7 1 10 0l2-1v-3h-1v-1q-1 0-3-4l-2-5-1-1-1-1v-6h2l2 1h1v1h1v2h1v1l3 4q4 4 10 8 6 2 10 3l3 1h4v-3q-1-3-2-9-1-7-3-18 0-10 0-14l2-4v-3h1v-1h1v-2h3v1h1v1h1v1h1v2l2 5q0 4 1 10v7h1l1-1h1l2-3q2-3 2-3h4l1 2 1 1-1 3q-1 2-1 3v5-1l2-1q2-2 3-2h1v5l-2 5q-2 6-3 7l-1 1v1l-1 1-1 1v2h1l1-1h1l1-1 1-1h2l1-1q1-1 3-2t10-9q9-7 13-15t5-13q1-6-1-9 0-3-7-6t-13-10q-5-7-11-10l-6-4q0-1-1-1t-2-4q-2-3-1-13t-2-16-4-11q-1-4-3-6l-2-3v-2h2q1 1 2 0 2-1 0-1-1 0 4-2 4 0 4-1l6-2q7-1 15-7t9-6h1l1-1 1-1h1z" fill="#f8faf5" stroke="#f8faf5"/>
  <path d="m428 244v4l-1 7q-1 7-1 9v2l-1 2-1 1v3h-1l-1 1h-1v-1l-1-2v-3q0-3-2-7l-2-3v-1h-1v-1h-1v-1h-1v-1h-1v-1h-3v2l1 1v3q2 4 2 7v3h-2v-1h-1v-1h-1t-3-2l-3-2h-4v1l1 1 1 1 1 3q1 2 2 3l1 1v6l-1-1-1-1h-1v-1h-1v-1h-1l-1-1q-1-1-5-3l-4-2h-3q-1 0-6-2-6-2-9-5t-3-7q0-5 4-10l3-4h1v-1h1v-1l3-6q2-6 4-7 3-1 16-1 14 2 19 6t7 8q2 3 2 6z" fill="#c5cfab" stroke="#c5cfab"/>
  <path d="m781 587q3 0 3 2t-3 2q-3 1-3-2 0-2 3-2z" fill="#d2d6c0" stroke="#d2d6c0"/>
  <path d="m34 149v5q0 4 0 5v1l-5 6q-5 7-7 14-1 6-6 8t-10 3h-5v-5l-1-4v-38l1-2q0-1 11 0 12 2 17 4t5 3z" fill="#c6d0ab" stroke="#c6d0ab"/>
  <path d="m780 566q3 0 4 2 0 2-2 3-3 1-4-2 0-3 2-3z" fill="#d0d9bf" stroke="#d0d9bf"/>
  <path d="m758 319l-2-3 4 3q4 3 6 7 3 4 4 4t4 1h4q0 1-4 1-5 2-4 2 2 0 0 1-1 1-2 0h-2v2l2 3q2 2 3 6 1 5 4 11t2 16 1 13q1 4 2 4t1 1l-7 2q-6 2-12 5-5 2-10 4-4 1-7 4t-3 16q0 12 4 21t5 11l1 2v4l1 2v2h-4v-1h-1v-1h-1v-1h-1v-1l-1-1q-1-1-5-11-6-11-11-17-6-5-12-6t-8 1q-2 0-10 2t-12 5l-4 4h-1q0 1 0 1h-1q-1 0-1-1t-2 0l-1 1h-2v-2l-1-1v-1h-1q-1 0-2-1l-1-1v-6q0-7 1-8l1-1v-2h1v-1l1-1q2-1 6-1t6 2q2 0 3 1l1 1h3l1-1h1l1-1 1-4q0-3 3-4 4 0 4-2 0-1-4-8l-4-7v-2h-1v-1h-1v-3l-1-1v-1h2v1l1 1v1h1v1h1v2h1v1h2q1 0 0-1 0-1 1-2 1 0 1 1l1 1v2l1 1 1 1v-2l1-13q1-14 3-20 4-6 10-12t18-12q12-4 14-5 2 0 2-1t2 0q2 0 2 1v1h2v1-6q0-1-2-4z" fill="#f1f3ea" stroke="#f1f3ea"/>
  <path d="m108 86h8l5 4q5 3 10 8t5 18q0 14-1 16l-1 3v2h1v1h-1v3l-1 1v1h1l2-1 1-1 1-1v-1l3-6q2-7 7-11 5-6 6-6t5 0h5l2 5q2 5 1 12t-1 9v2l-1 1v1h-1t0 1q-1 1-1 1l-10 10q-10 10-13 14-3 2-3 3h-1v1l-1 1-1 1v6h5l1-1 1-1h1l8-7q7-7 12-8 4-1 8-1 3 0 5 0h2v1h1v1h2v6q0 7-4 16-4 10-10 16t-12 10q-6 2-9 3t-11 1h-8v1h-1l-3 2q-4 1-4 4 0 2-1 3-1 0 1 2 0 2-3 4-4 2-11 2t-8-1q-1 0-2 1 0 2-7 4t-9 2-3 0h-1v1l-1-1v-1h-2v3l-1 2v-8h-1v-1h1q1 1 2 0 0-1 1-1t4-4l3-3v-4h-1v-1h-1v-2h-1v-1q-1 0-10-3-9-2-21-8-11-5-11-6t-1-1-2-3q-2-4-2-12 0-9 0-12l2-4q0-1 1 0 0 1 5 1h5v-2h-1l-2-1-1-2q-1-1 0-2 0 0 1-2 1-1-2-2-4-1-4-2v-3q0-1 0-5v-5q0-1-5-3t-17-4q-11-1-11 0l-1 2v-18l1 1v1h1q2 0 6 2 5 2 16 2 10 0 16-2 6-4 9-8t4-8q1-5 3-8l2-4v-1h1v-1h1v1q-1 1 1 2 3 0 3 1 1 2 13 2t19-10q6-10 12-10z" fill="#e9ede0" stroke="#e9ede0"/>
  <path d="m606 326h1l9 6q10 6 15 11 5 6 10 17 5 10 6 10v1h1v1h2l1 1h1v1l4-1q5-1 6-1 1-2 2-2h1v1h1v1l1-1 1-1v2h2v2h-1v1h1v5h-1l-1 1-1 1h-1t-2 0q-3 1-3 0t-3-1h-4v2h-2v2h1v1h1v1h-1v1h1v1h-1v1h-2v2h-4q-4 0-5 1l-1 1h1v3q2 3 2 4v1h-1q-1 0-4 0t-7 1q-5 1-8 4-2 2-6 6-2 4-4 18v14l-1 3-1 2v2h-1v1h-1v-15q0-11 0-12 0-2-2-2-1 0-1-3-1-3-1-3-2 0-2-1-1-1 0-4l2-3v-2h2-5v1q-1 0-3 2-3 3-3 2-1-1-1-2-1-1-4 0-3 0-3 1-1 1-2 2-1 0-1 1t-2 3l-2 1v1h-8v-1h1v-1h1l1-2q1-1 2-2l1-1v-3h-1v-1h-1v-1h-7v1h-1v1h-1q-1 0-5 4-4 3-14 14-9 12-15 16-7 5-16 8-9 2-21 2-13-2-14-4l-2-3v-9q0-5 0-8t3-9 6-10l4-3v-1h1v-1h2v-1l1-1 11-5q12-5 17-5h5l1-1 1-1h-8q-9 0-10 0t-10-4q-8-4-11-8l-3-5v-3l3-3q3-3 11-7 9-4 21-4t33 8q20 8 22 9 3 1 7 1h4l1-1h2v-4l-1-1-1-1v-1h-2v-1h-1v-1h-1q-1 0-6-3-6-3-15-8t-12-9q-3-5-3-10v-6l6-2q5-2 18-4 14 0 20 0 7 2 8 2z" fill="#e5eada" stroke="#e5eada"/>
  <path d="m271 76h1t0 1h1v6q-1 6-2 9-1 2-1 6 0 3 2 4t4 6q2 4 6 8 5 2 14 4 10 2 14 1l4-1h1l1 1h2v2l-1 1-1 1v1h-2l-1 1-1 1-18 5q-17 5-20 8-2 3-2 8t4 10 7 13q2 8 7 12 6 4 8 5 1 1 4 1h3l-1 1-2 1h1v1h1v1h-1v1h1v1l2 1q2 2 2 3h-1v1h1v2l1 1v2l-1 1v1h-2v2l-1-1-1-1v-2l-4-3q-4-3-4-5 0-1-1 1-1 1-4 2-3 0-4 1 0 1-2 2-3 1-3 5-1 3-1 8 1 5 1 7 1 1 2 1t1 3q-1 3-3 6-4 4-4 8 0 3-4 4-4 2-6 4-2 1-1 6 1 6 2 7 2 1 3 6 0 5 2 8 1 3 3 3h2v1h1v1h-6l1 1 1 1 14-1q15-1 18-3 4-4 7-9t3-7v-1h1l1-1 4 3q4 3 12 5 7 4 8 5 0 2 4 3 3 0 3 2-1 3-1 5v8l-3 6q-3 6-3 9 0 4 1 5v1t1 1l2 3q1 2 1 3 1 1 0 2v1h-2q-3 1-3 2t-8 4q-8 2-13 5t-9 7q-5 4-9 9-3 6-5 14t-2 11q0 4 0 7v3l1 2 1 1v4h-4v-2h1v-1h-1v-2h1v-1h-1q0-1-1-1t-1-1-1 1-2 0l-1-2h-1v-1h-1v-2h-1v-1h-1v-1h-1v-1h-1v-26q0-27-1-30-1-2-4-8-3-7-13-14-9-6-16-9-8-3-13 1t-11 12-6 14q0 7 4 15t9 13q5 6 6 6t1 1q1 1 5 7l5 6v6h-1l-1 1-2 1h-3l-1-1h-1v-1h-2v-1h-1q0-1 0-1-1 0-4-6-4-6-9-15t-12-13l-7-5v-1t-2-1l-2-1v-1h-1v-1h-1v-1h-1v-1h-1t-2-2q-2 0-8-2h-7l-2-1-2-1h-1l2-1 1-1h1t3-1l3-1h-2q-3 0-4-1l-1-1h-1v-2l1-1q1-1 3-5 4-3 4-12 0-8-3-11t-5-8l-2-4v-2h1v-1h1v-2h-1v1h-1v11h-2v-5l-1-3q-1-2-1-2t4-6q3-4 3-5v-1q1-1 3-3t2-6-4-11q-4-6-8-9t-12-3-18 1l-11 1-3 1h-4v-2h1l1-1h-1v-1h1v-1h8q8 0 11-1t9-3q6-4 12-10t10-16q4-9 4-16v-6h-2v-1h-1v-1h-2q-2 0-5 0-4 0-8 1-5 1-12 8l-8 7h-1l-1 1-1 1h-5v-6l1-1 1-1v-1h1q0-1 3-3 3-4 13-14l10-10q1 0 1 0v-1t1-1h1t0-1l2-2q2-1 8 2t8 5q3 2 10 2 6 0 7-4 1-3 5-2 4 0 6-1t4-4 2-14q1-11 4-12 2-1 4-1h1v-1h1v-1h4v-1l8-3q9-4 14-8 4-5 6-8 2-4 2-6v-3t1-1h1q0 1 1 1v-1h1v-2l1-1v-1h2v1l1 1v-2q0-2 1-2z" fill="#f9faf7" stroke="#f9faf7"/>
  <path d="m671 448l-1-16 1 1q1 1 2 1h1v1l1 1v2h2l1-1q2-1 2 0 1 1 2 0h1l-2 4q-1 4-1 15 2 11 0 14-2 4-2 7t3 5q3 3 4 7 2 4 9 7 6 2 14 4 8 0 14 0h5v1l-1 1v1h-1v1h-1l-1 1-1 1h-1l-17 6q-16 4-20 7t-4 9q0 5 5 10t7 13q2 7 8 12 5 5 7 5t4 1h2v1h-2v1l-1 1v2h1v1h1v2h1v1h1v2h-1v-1h-1v1h-2q-3 0-4-2 0-2-4-2-3 0-8 4-6 5-6 13t4 11q2 2 2 4t-1 2-3 4q-3 4-4 6-1 4-3 4t-5 4q-2 4-2 4h-1v1h-1v4h-1v1h1l2 1 1 1h-95v-1l1-1 1-1v-1h1v-1q1 0 3-3 4-3 4-6t-2-8q-2-6-7-11t-14-5q-9-2-23 1l-14 3h-1v-1h-1v1l-1-1-1-1v-2h1v-1h1v-1h3l5-1 6-1h2q3 0 7-1t9-3q6-4 12-10t9-13 4-15l1-9h-1v-1h-8q-6 0-9 1-4 1-12 8l-9 7h-1l-1 1-1 1h-3v-1h-1v-1h-1v-1h1v-3l1-1 1-1v-1l15-15q15-15 17-18 2-2 4-3 2 0 2 1t6 5q6 5 9 5t7-1 6-3q1-2 4-2 4 0 6-2t3-5q1-4 1-5-2-2 0-4t3-8 5-7q5-1 5-2h1q2-1 6-1 3-2 12-6 8-4 9-6t4-8 2-22z" fill="#f8f9f5" stroke="#f8f9f5"/>
  <path d="m518 217h1v1l-1 1v1l-1 1v1h2v-1h1v-1h1l2 1q2 1 3 1 1-2 9-2h8v1h1v1h16q16 0 20 3t8 10 4 11q0 3-3 6-3 4-4 4h-1t0 1q-1 1-1 1h-1q-1 0-6 3t-16 3-30-8q-19-6-30-6l-12 2h-2q-1 0-2-2 0-1-2-1l-2 1h-1v-10h-2v-2h2v1h1v1l1-1q1-1 2-2h1v2q-1 2 1 2l2 1h1l1-1 1-1 7-4q7-5 11-10 5-6 7-7 3-1 3-1t0-1z" fill="#e7ecdd" stroke="#e7ecdd"/>
  <path d="m395 603h11l6 1q5 2 9 6 5 4 5 6 2 3 2 4v14l-1 2-1 2h-4q-3 0-6-3l-2-3h-1v-1h-1v-1h-3v3q1 3 1 4t-16 1l-15 1h-5l-4-1h-1v-1h-1v-8q0-2 4-7 4-4 7-10 2-7 3-8 2 0 13-1z" fill="#c4cfaa" stroke="#c4cfaa"/>
  <path d="m156 495l1-1h6v1l1 1v3l2 7q0 7 0 9t-1 4l-1 2v2l-1 1-1 1v2t-1 1l-13 12q-12 13-13 14l-1 1v3l-1 3v3h4l1-1 1-1h2v-1h1q0-1 2-2t10-7 15-6h9v1h1v1h1l-1 8q-1 7-5 16t-11 16q-8 6-16 8t-15 3l-8 1h-3v1h-1v5h9l2-1 2-1h1v2h-1v1h-1l-1 1h-2v1h-1v1h-2q-2 0-4 0-3 0-6-1-2-1-4 0t-2 2-2 2l-2 1h-2v1h1v1h-2v-2l1-2v-5q0-2 4-6t1-5q-2 0-1-3v-4q0-1 1-5l1-4v-1h1v-1h1v-2q1 0 1-1h1q0-1 0-1v-2q0-1 1-1 0 1 3-5 2-6 5-8t3-1 2 0q1-1 0-1 0-1 2-7l2-5v-3q0-2 0-1-1 2-2 2h-1v-1l1-1v-1h1v-1q1 0 2-1t3-6q1-4 0-5h-2 2v-2h1v-1h1v-2h1v-1q1 0 3-7t7-12l5-5 2-1z" fill="#e6eadb" stroke="#e6eadb"/>
  <g fill="#c4cfaa" stroke="#c4cfaa">
   <path d="m826 230v14q0 11-4 9t-3 6-1 7q-2-2-6-3l-5-2v1l1 2v2h1l1 2q2 2 2 4v1h1v1h1v4h-1l-1-1-1-1h-1v-1h-1v-1h-2v-1q-1 0-1-1-1 0-11-4t-14-6q-3-3-4-7t2-9l3-4h1v-1h1v-1l2-3q2-3 3-7t4-5 17-1q13 2 14 2 2 1 2 4z"/>
   <path d="m369 393l7-1 6 5q6 5 11 11 6 6 11 8t6 4q0 2 0 9t-4 14-12 14q-7 7-8 7h-1v1h-1v1h-1l-1 1-1 1h-1v1h-1q-1 1-1 1h-1l-1 1-1 1h-2l-1 1h-1v-1l1-1v-1l1-1 1-1v-1q0-1 3-6l3-5v-6h-2q-1 0-1 1-1 0-3 1h-2l1-2q1-1 1-5v-6h-2l-2 1-2 2q-2 3-3 3v1h-1l-1 1h-1v-8q0-8-1-10l-1-2v-3h-1v-1h-1v-2h-1v-1h-3v1h-1v1h-1v2l-1 1-1 1v14q0 14 2 20 2 7 2 8v6h-4l-3-1q-3-1-7-2t-10-7l-6-6v-2h-1v-1h-1v-1h-2l-1-1h-1v7l3 5q3 5 3 5v1h1v1h1v3h-3q-3 1-9 0l-5-1h-1l-1 1h-1v2h1v1h1v1h1v1h1v1h1v1l7 3q8 3 17 3h12v2l-1 1v2h-1v1h-1v2l-10 8q-9 8-13 12-4 2-5 3l-1 1h-1l-1 1-1 1h-1v1h-1v1h-1v1h1v1h6l3-1q3-1 5-1h1l2-1h2v2l-1 2-1 3q-1 4-2 5l-1 1v2h-1 5l1-1 1-1h1v-1h1v-1t5-4l4-4v-1h1v-2h1v-1h1v-1h1v-1h1v1h1v1l-1 2v4q-2 5-2 16 0 10-5 14-4 4-12 7t-13 3q-6 0-8 1h-4q-2-1-5-1-3-2-8-6-5-5-7-12t-6-12-4-10 2-8q3-2 20-8l18-6h2v-1h1v-1h1l1-1h1v-3h-12q-11 0-14-2-4 0-9-3t-7-7-4-8q-4-3-2-8 2-4 2-10 0-7 0-14v-7q1-1 1-1l3-4q2-4 4-5 3-1 10-3 8-2 10-2 3-2 8-1 6 1 12 6 6 6 10 17 6 10 6 10v1l1 1 1 1v1h1l1 1 1 1h3v-7l-1-1q-1-2-5-13t-4-22 2-14 8-5q5-2 12-5 6-3 13-4z"/>
  </g>
  <path d="m372 187q2 0 3 2 0 3-3 3-2 0-2-2t2-3z" fill="#d3d7c1" stroke="#d3d7c1"/>
  <path d="m0 626v-14h1l1 9q0 9 3 11 2 2 2 3h1v1l1 1 1 1h8v-2l1-6v-5q1 0 1 5v5h1v1h1v-3l1 1v2h2v-1h1v-1h2v-2h1v1h1v5l2 1h3v1h-35v-14z" fill="#f2f4ea" stroke="#f2f4ea"/>
  <path d="m827 609v31h-38v-1l15-1q14 0 14 0 0-1 0-4v-4l3 2q3 2 3 2h1v-1h1v-12q0-12 1-12z" fill="#f1f4e8" stroke="#f1f4e8"/>
  <path d="m179 254v1q0 1-3 5-4 6-2 6h2v-1h1v-1h1v2h-1v1h-1v2l2 4q2 5 5 8t3 11q0 9-4 12-2 4-3 5l-1 1v2h1l1 1q1 1 4 1h2l-3 1q-3 1-3 1h-1l-1 1-2 1h1l2 1 2 1h7q6 2 8 2 2 2 2 2h1v1h1v1h1v1h1v1h-2l-2-1-1-1h-3l-3-1q-3-1-13-1t-22 3l-11 2v1l-1 2v1l2 5q2 6 9 12t17 11 11 5h1v1h1v1h1v1l1 1 1 1v4h-1v1h-7q-7 0-28-9-22-9-31-9t-17 2-14 7l-6 5 2 4q2 5 6 9t4 5q2 2 2 2l2 1 2 1h1l-5 1q-5 1-5 2t-1 1-1 2-3 3q-2 1-2 2h-2l-1 1h-1v-2h-2v-1h1v-1h-4v-1q1-1 1-1 0-1 0-2 0-2 0-10t1-7 1 0q1-1 0-1t0-1v-1t-2-2q-2-1-4-6-3-4-4-4-2 0-2-1t-2-2q-1-1-6-1-6 0-20 3t-18 5q-5 2-4 3 0 1-2 1-1 0-5 3l-3 3h-1v1h-1v1h-6v-25l1 5v4h3l1-1q1-1 3-1 3-2 12-2 8-1 8-2t5-6 5-12 0-10l-2-4v-2l-1-2-1-1v-1h2l2 1 1 1h1v1h1v1h1v1q0 1 4 7 4 5 9 9 4 5 9 5 6 0 9-4t6-6q4-2 8-6t5-10q0-5-2-10t-6-11q-5-5-10-7l-4-1v-1h-6v-4q0-1 3-4l3-2v-2h-2v1h-1v-1q-1-1-3-1-2 1-2-1-1-1-2-1h-2v-2l1-1q1-1 1-2v-2q1 0 1-1v-1q1 0 3-4 4-5 5-10l1-4h1l1-1 2-1h1l1 2q1 2 13 0 12 0 35 7 22 7 30 7 7 0 15-4t9-5q0-1 1-1zm-4 17l1 3v2h-2v-5l-1-1q0-2 1-2t1 3zm-110 2q1 0 0 2-1 1-2 2-1 0 0-2 1-1 2-2z" fill="#f8f9f4" stroke="#f8f9f4"/>
  <path d="m800 116l-3-3 5 1q5 2 12 2t10-1h2v7q0 7-2 7l-2-1h-2q-1 0-10-5-8-5-10-7z" fill="#c7d1b0" stroke="#c7d1b0"/>
  <path d="m799 94h1l4-3q4-3 11-9 7-7 9-9t2 9q0 10-1 10t-6 0q-5 2-13 2-7 0-7 0z" fill="#c8d1b1" stroke="#c8d1b1"/>
  <path d="m584 256h1l-3 4q-4 4-5 5-1 2-2 2t1 8q3 9 7 10 5 2 5 3 2 1 1 6-1 6-2 10-2 4-3 7-1 2 1 3 2 0 1 1t-1 1h-1v2h1l7 2q7 0 10 2 4 1 4 2t1 2h-1q-1 0-8-2-6 0-20 0-13 2-18 4l-6 2v6q0 5 3 10 3 4 12 9t15 8q5 3 6 3h1v1h1v1h2v1l1 1 1 1v4h-2l-1 1h-4q-4 0-7-1-2-1-22-9-21-8-33-8t-21 4q-8 4-11 7l-3 3v3l3 5q3 4 11 8 9 4 10 4t10 0h8l-1 1-1 1h-5q-5 0-17 5l-11 5h-4l-1 1q-1 1-2 1h-2v-1t0-3q0-2-2-1-1 1-1-3t0-5 0-3-1-5q0-4 0-5 0-2-1-2t-2-4-5-8q-4-5-10-6-5-1-5 0t-1 1-2 1q0 2-12 3l-11 1h1l2-1h1v-1l-1-2v1h-1v-1h-1v-4t4-4q4-3 4-14v-11l-1-1-1-1v-3l-1-1v-1h3v1h1v1h2v1h1v2l9 10q8 11 14 11t11-6q4-4 9-8 5-3 7-7t0-9q0-6-4-12-4-7-8-10-2-2-3-2-1-1-1-2 0 0 1-1t1-2q-1-1-2-3 0-2 4-4l4-1v-3q0-2 0-2 0-1-1-1 0-1-1-1t-1-1l1-1v-2l-1-1v-1h2v1q0 1 1 1t1 1v1h2v-1h-1v-1h3v-1l-1-1h-2 1v-1h1v-4q0-1-2-1t-3 2q-1 0-2-3t-3-3h-1v-1h1v-1l1-1v-1h2l-1-1-1-1h1l12-2q11 0 30 6 19 8 30 8t17-4q5-3 6-3 0-1 1-1z" fill="#f8f9f5" stroke="#f8f9f5"/>
  <path d="m432 616v-1l1 3v3h2v-2q1-2 1-2l1 5q1 6 1 11v5h1l3 1h3v1h-66v-1l15-1q16 0 16-1t-1-4v-3h3v1h1v1h1l2 3q3 3 6 3h4l1-2 1-2v-13h2v3l1-4 1-3v-1z" fill="#f3f6ec" stroke="#f3f6ec"/>
  <path d="m256 24h1l-1 6q-2 5 2 24 4 18 4 23v9q0 2-2 6-2 3-6 8-5 4-14 8l-8 3h-2l-3 1h-1q-2 0-4 0-3 0-5-8-1-7-2-24 0-18 0-20 1-3 2-8 2-4 13-13 10-9 10-12v-2 1h3q3 1 3 2t4 0q5-2 5-3t1-1zm-15 6t0-1q1 0 1 1 0 0-1 0z" fill="#e4ead8" stroke="#e4ead8"/>
  <path d="m449 448l1 1v1h1v2q1 1 1 2 0 0 3 2t8 6q5 3 5 8 2 5-2 10-2 5-4 10 0 6-3 10t-9 7q-5 3-14 4-10 1-18-2-7-3-15-7l-8-4h-2v-1h-1v-1h-2v-1h-1v-1h-1v-2h3l3 1 2 1h10q9 0 10-1l2-1h2l1-1h1v-2h2v-2h-4q-5-1-10-1h-5l-1-1-1-1h-1v-1h1v-1h2v-1h1v-1l3-1q3-1 3-2h1v-1h1v-1h1v-1h1v-3h-4l-3 1h-1q-2 0-10 1l-8 1v-1l1-1h1v-1l1-1h2l8-7q7-6 13-14 6-7 10-9 3-2 8-1t10 4q4 4 5 5z" fill="#c5cfab" stroke="#c5cfab"/>
  <path d="m36 444l5 4v1l1 1v3l5 3q4 4 8 6 3 2 5 4 0 3 0 8 0 4-4 8-2 5-4 11-1 7-6 11t-9 6-14 1-15-2q-4-1-6-2h-1v-1l-1-2v-2l1-4v-3h1q2-1 6-2l5-1v-1h1v-1h1v-1h1v-2h-1l-1-1h-12v-4q0-3 2-6l2-2 1-2v-1h-3q-3 0-4-1v-10l1-2 1-2v-1h1v-1h1v-1q0-1 4-5 3-5 6-7 3-1 10-1 6 0 12 4z" fill="#c4cfaa" stroke="#c4cfaa"/>
  <path d="m5 318l-1 1v1q-1 2-2 2t-1-9q1-9 2-9 2-1 2 6 1 6 0 8z" fill="#cdd5bc" stroke="#cdd5bc"/>
  <path d="m468 100v1l-1 1h-1v1h-1v1h-1v2l-1 1q-1 1-1 6t-2 7l-1 2h-1t0 1q-1 1-1 1h-1t-1 2q-1 0-5 3t-14 3q-11 0-14 0-4-2-16-7l-12-5v-1h-1v-1h-2v-1h-1v-1h-1v-1h-1v-2h1l1 1h4l8 1q8 1 11 0l3-1h2l2-1 1-1h1v-1h1v-1h1v-2h-6q-7 0-10-1l-3-1h-3v-2h1l1-1 1-1 3-2q4-2 4-2h1v-1h1v-1l1-1 1-1v-2h-7l-1 1q-2 1-8 1l-6 2h-3v-1h-1v-1h1v-1h1v-1h2v-1h1v-1l8-6q7-6 13-13 5-7 10-9 4-2 8-2 5 0 10 4 4 4 7 9t9 9q7 4 8 6 2 3 1 7t-1 5z" fill="#c5cfab" stroke="#c5cfab"/>
  <path d="m0 299v-55h1v4q0 4 3 6 2 1 4 5t3 7l1 3v5h2v-1l1-1 1-2v-3l1-1q1-2 1-8l1-7 1 3q0 4 1 8l1 3v-1h4l1 1v1l-1 3q0 3-1 5l-1 1v6-1h2v-1h1v-1h2v-1h1v-1h1v-1q1 0 6-7l6-8h1v-1h1v-1h1v-1h1v-1h2v-1h1v7l-2 6q-4 5-4 6v1h-1v1h-1v2l-1 1v1h3l1-1 1-1h3l1-1q1-1 2-1t4-4q3-3 4-3h1l-1 3q0 2-1 3 0 1 2 0 3-1 4-1 1-1 1 2t1 4v1h1v-1h2v2l-3 2q-3 3-3 4v4h6v1h-2q-3 1-12 3l-10 2h-1v1h1v1h4l4 2q3 2 4 2h1v1h1v1h1l1 1 1 1h1v1l1 1v1h-1l-1-1h-3q-2 0-5 0h-4v1h1l2 3q2 3 2 4v2l1 2v1h-1l-2-1h-2v-1h-1v-1h-2v-1q-1 0-2-1-2-2-12-7l-10-5-2-1-2-1h-3v2l1 1 1 1 1 4q1 4 1 8 0 5 0 6v2l-1 2-1 1v1h-1v1h-1v1h-1v1h-1v-2l-1-2q-1-2-1-5l-2-2h-3v1h-1v1h-1v1h-1v1h-1v1h-1v1h-1q-1 1-2 12l-1 12v-55zm20-3h-6v-5h1v-1h2l17-2q16-2 24-4t6 0q-1 2-14 6-12 4-18 4-5 2-12 2zm-15 22l-1 1v1q-1 2-2 2t-1-9q1-9 2-9 2-1 2 6 1 6 0 8z" fill="#f8f9f3" stroke="#f8f9f3"/>
  <path d="m647 392h4l8 1q8 1 16 4 9 4 12 6 3 3 4 3h1v1h1v1h1v7l-1 1h-3l-1-1q-1-1-3-1-2-2-6-2t-6 1l-1 1v1h-1v2l-1 1q-1 1-1 8v6l1 16q1 16-2 22t-4 8-9 6q-9 4-12 6-4 0-6 1h-6q-5 0-5-3-1-4-4-16-3-13-4-22t3-15q2-6 11-15 9-10 10-14l1-4v-1q0-1-2-4v-3h-1l1-1q1-1 5-1z" fill="#e5ead9" stroke="#e5ead9"/>
  <path d="m768 580q2 0 3 2 0 2-3 2t-3-2q-1-2 3-2z" fill="#d4d8c4" stroke="#d4d8c4"/>
  <path d="m442 553h2v1h7l9 2q9 2 12 2 4 1 4 2 1 0 4 2 4 1 3 2 0 2 5 6 5 6 4 7-1 2 1 3 1 1 2 2 0 2-1 2 0 1 2 5t3 7q1 2 1 4v3l-1 1-1 1v-1h-1v-1h-1v-1t-1-1l-1-1h-3v1q0 1 1 2 2 1 2 1h-1v1h-1v1h-1v-1h-1v-1h-1t-1-2q-2-1-14-4-12-2-22-7-9-5-11-7-1-3-3-8l-1-4v-2q-1-3 1-10t4-7zm50 29t1 0-1 0z" fill="#e4ead9" stroke="#e4ead9"/>
  <path d="m387 0h126t-5 1l-5 1h-3v1h1v1h1v1h1v1h3l1 1 1 1 4 2q3 2 12 2h15v1h1v1h-2v1h-1v1h-3q-4 0-7 1t-14 3-16 6-10 10q-5 7-5 20t0 16q1 2 4 3 2 1 12 2l9 1 2 1 2 1h2v1h-1v1h-3q-3 0-4 1l-1 1h-3l1 1q1 1 3 1 1 1-3 10t-7 9q-2-1-3 0 0 0-8-1-7-1-7 0t-4 1l-4 1h-1v1-2q0-2 0-3v-2q0-1 1-5t-1-7q-1-2-8-6-6-4-9-9t-7-9q-5-4-10-4-4 0-8 2-5 2-10 9-6 7-13 13l-8 6v1h-1v1t-2 2l-2 1v-1q0-1 0-2t-1-1l-2-1h-7v-1h1v-1h2v-1h1v-1t9-8q9-7 13-14t4-14 0-9q-1-1-7-5-6-2-11-8l-4-5v-1q0-1-1 0h-1t-2-3l-3-3h1q2-1 1-4-1-4 0-6t2-2q1-1 1-2t1-2zm-1 16q0-1 1 0 1 2 0 1-1 0-1-1z" fill="#f2f4ec" stroke="#f2f4ec"/>
  <path d="m0 39v-39h81v3q1 3 1 11 2 7 3 8 2 0 2 2 0 1 1 1l1 1h-1l-6 6q-6 6-7 10t-1 17 1 14q0 1 14 2t19 1q4-2 6-2h1l1-1 1-1h2v-1h1v-1h2v2h-2v1h-1v1h-1v1h-1v1h-1t-1 2h-1l-1 1-1 1h-1v1h1v2l1 1q1 0 2 0v1h1v1h-8q-6 0-12 10-7 10-19 10t-13-2q0-1-3-1-2-1-1-2v-3q0-1 0-5t0-6q-2-2-8-6t-9-8-8-8q-5-5-11-5-7 0-13 6l-6 6v1h-1v2h-1v1h-1v1l-1 1h-1v-39z" fill="#f1f4eb" stroke="#f1f4eb"/>
  <path d="m61 545l-1-4 6 6q6 7 16 11 11 4 14 7 4 3 6 7 2 5 2 6v1h1v-1h1q2 0 2 0h1v-1h1v-1h1v-1h1v-1h2v2h-1v1h-1v1h-1v1h-1v1l-1 4q-1 4-1 5v1l-1 2q-1 2-2 2t-1 2v1l-1 1-1 2v-7h-1v-1h-2q-2 0-4-1t-4-3q-3-3-5-8-2-6-6-8-4-3-4-4t-1-1q-1-1-1-2t-3-2-3-2-6-2-13-3l-6-2h-6l1-1h10q11-1 12-1h2v-2q0-1-1-5z" fill="#eff2e8" stroke="#eff2e8"/>
  <path d="m60 98v2h-1v1h-1v1l-2 4q-2 3-3 8-1 4-4 8t-9 8q-6 2-16 2-11 0-16-2-4-2-6-2h-1v-1l-1-1v-3l1-3q1-3 5-5l5-1 1-1 1-1h1v-1h1v-1h1v-2h-2l-6-1h-7v-5q0-2 3-5l4-3v-2h-1q-1 0-3-1-3 0-3-7v-6l1-1v-1h1v-1h1v-2h1v-1l6-6q6-6 13-6 6 0 11 5 5 4 8 8t9 8 8 6q0 2 0 6t0 5z" fill="#c4ceaa" stroke="#c4ceaa"/>
  <path d="m604 408h4-2v2l-2 3q-1 3 0 4 0 1 2 1 0 0 1 3 0 3 1 3 2 0 2 2 0 1 0 12v16t-4 5-12 9-16 4q-7 2-11-6l-4-8h-1v-2l-1-1-1-1v-1q0-1-1-3-1-3 1-9t8-13l6-8h1q1 0 1-1h2l3 1h1v-1l2-3q0-4 1-3 0 1 2 1 1-1 2-2 0-1 3-1 3-1 4 0 0 1 1 2 0 1 3-2 2-2 3-2v-1h1z" fill="#e3e8d7" stroke="#e3e8d7"/>
  <path d="m272 440h1l-1 6q0 5 0 10 2 6 0 10-2 5-2 8-2 3 2 6 2 4 4 8t7 7 9 3q3 2 14 2h12v3h-1l-1 1h-1v1h-1v1h-2l-18 6q-17 6-20 8-2 3-2 8t4 10 6 12 7 12q5 4 8 6 3 0 5 1h2v1h-2v2h-1v1h-1v1l4 4q2 4 2 12-2 8-7 12-5 5-5 9 0 3-4 3-5 0-8 3-2 2-4 4-1 3-4 4t-4 3q0 2-1 2-1 1-1 2v1h-1v1h-1v4l2 1 2 1h-97l1-1v-1h1v-1h1v-1h1t3-4 4-6q0-2-4-11-5-9-9-11t-13-2-14 2-8 2l-3 1v-1h1v-2h-1l-2 1-2 1h-9v-5h1v-1h3l8-1q7-1 15-3t16-8q7-7 11-16t5-16l1-8h-1v-1h-1v-1h-9q-7 0-15 6t-10 7-2 2h-1v1h-2l-1 1-1 1h-4v-3l1-3v-3l1-1q1-1 13-14l13-12h1t0-1q1-1 1-1h1v-1h1v-1q1 0 2-1t5-1q3 0 10 6 6 6 10 4 5 0 8-3 2-3 6-3 5 0 8-2 2 0 3-2t1-14q2-11 2-12t4-2q4-2 6-3l2-1h1q1 0 3-1t9-4 11-7q3-4 5-9 1-5 2-16v-11h1v1h1v1h1v2l1-1 1-1v-1h1v-1h1q1 0 1-1t1-1z" fill="#f8f9f5" stroke="#f8f9f5"/>
  <path d="m0 485v-17 2q1 1 4 1h3v1l-1 2-2 2q-2 3-2 6v4h12l1 1h1v2h-1v1h-1v1h-1v1l-5 1q-4 1-6 2h-1v3l-1 4v-17z" fill="#f2f6ea" stroke="#f2f6ea"/>
  <path d="m687 8l-5-8h90l1 2q1 1 0 4-1 2 0 4v1h1q2 1 2 1h1t-3 1q-2 1-6 3-5 2-12 5-8 3-11 6-3 4-3 13 0 10 4 23l6 13v8h-4v-1h-1v-1h-1v-1h-1v-1h-1v-1q0-1-6-13t-11-16-10-4-7 0q-3 2-10 3t-11 4q-3 2-7 8-2 6-1 16l1 10-1 1h-2v-4h-2v2l-1 1v2l-1-1-1-2v-2q0-2-1-2v-9q-1-9-1-21-2-11 0-14v-2h1v-1h1v-1h5q4 0 7 1t6 1h3v-1h1v-3q0-3-2-6t-2-7-5-11zm7 12q0-1 1 0 1 0 2 1 0 1-1 1-2-1-2-2z" fill="#f5f6f0" stroke="#f5f6f0"/>
  <path d="m378 577q3 1 3 3t-3 2-3-3q1-2 3-2z" fill="#d1d8bf" stroke="#d1d8bf"/>
  <path d="m122 223l3-2v1h1l-1 1h-1v2h4l3-1 11-1q10-1 18-1t12 3 8 9q4 7 4 11t-2 6-3 3q-1 0-1 1-1 1-9 5t-15 4q-8 0-30-7-23-7-35-7-12 2-13 0l-1-2h-1l-2 1-1 1h-1v-2l1-2v-3h2v1l1 1v-1h1q1 0 3 0t9-2 7-4q1-1 2-1 1 1 8 1t11-2q3-2 3-4-2-2-1-2 1-1 1-3 0-3 4-4z" fill="#e6ebdc" stroke="#e6ebdc"/>
  <path d="m1 234v-9h1l2 1h3l1 1 1 1h2v1h1l2 4q4 4 4 5 0 2 1 8v5l-1 7q0 6-1 8l-1 1v3l-1 2-1 1v1h-2v-5l-1-3q-1-3-3-7t-4-5q-3-2-3-6v-14z" fill="#c5d0ae" stroke="#c5d0ae"/>
  <path d="m827 181v2q-1 0-1 4t-6 4q-6-1-10-2t-8-4q-3-3-9-10-7-7-9-15l-4-8v-8h2v1h1v1h1v1h1v1h1v1l7 6q6 7 7 7h1l1 1 1 1h2l3 1h2v-5l-1-1-1-1v-1l-3-3q-2-4-3-4t-1-1-1-1-7-10q-5-9-6-12-1-2 13 5 13 7 20 9 6 2 6 22 0 19 1 19z" fill="#c4cfaa" stroke="#c4cfaa"/>
  <path d="m354 42h3v1h1v1h1v1h1v3l1 2q1 2 1 10v8l4-4q4-3 6-4 2 0 2 5t-1 7q0 2 3 1 4-2 3 3-1 6-5 12-3 6 0 4 4-2 5-2h8l3 1q2 1 2 1-1 0-1 1h-1q0 1 0 1-1 0 0 1h1v1h3l6-2q6 0 8-1l1-1h7v2l-1 1-1 1v1h-1v1h-1t-4 2l-3 2-1 1-1 1h-1v2h3l3 1q3 1 10 1h6v2h-1v1h-1v1h-1l-1 1-2 1h-2l-3 1q-3 1-11 0l-8-1h-4l-1-1h-1v2h1v1h1v1h1v1h2v1h1v1l12 5q12 5 16 7 3 0 14 0 10 0 14-3t5-3q1-2 1-2h1q1 0 1 0v-1t1-1h1q2 0 4 2 2 3 3 5 1 3 2 3 1 1 0 3-1 3-2 11-1 9 1 16t3 8q1 2 1 2l1 2v1h-7l-14 1q-13 0-13 10 1 11 3 16 2 4 11 9t22 9 14 6q1 1 1 2v2l1 1v1h-1t0 1q-1 1-1 1h-1v1h-1v1h-1l-1 1h-1q-1 1-1 1h-1v1q-1 1-1 1h-1l-1-1h-1v-1t-1 0q-1-1-3-3-2-3-10-3-7 0-10-2-2 0-9-1h-7v2h-1v7q-1 6 0 8l1 3v1h-2v1l-1-1-1-1v-1l-1 1-1 1v2l-1-2-1-1v2l-1-1-1-2v-4q0-3-2-6-2-4-7-8t-19-6q-13 0-16 1-2 1-4 7l-3 6v1h-1v1h-3v1h-1v-1h-2v-2q0-3-11-8-11-4-25-5t-17 1q-3 0-4 3t0 5q0 1-2 1l-2 1h-1l-1 1-1 1h-1l-1-1-1-1h-1v-1h-1v-1h-1v-5h1v-1h1t4-2 5-11-1-10l-1-1-1-1v-2h-1v-1h1q0-1-2-3l-2-1v-1h-1v-1h1v-1h-1v-1h-1l2-1 1-1 11-2q12-2 18-5t8-8q2-4 3-15 1-10 1-14v-5h-1v1h-1v1h-1v1h-1v1l-1 1-1 1q0 1-4 5l-4 4-1 1-1 1h-1l-1 1-1 1h-4v-1h1v-2l1-1q1-1 2-4l1-4 1-2v-2h-3l-2 1q-1 1-8 1l-7 1v-1l1-1v-1h1l1-1 1-1h1l13-11q13-10 14-12 2-1 2-2h1v-2h1v-1h1v-2l1-2v-1h-1l-2 1h-9q-9 0-17-4l-7-4h-1v-1h-1v-1h-1v-1h-1v-1h-1v-2h7q7 0 10 0h3v-3h-1v-1h-1v-1q0-1-1-1 0 0-2-5l-3-4v-7h2l1 1 1 1h1v1h1v2l6 6q6 5 10 7 3 2 6 2h8v-4q0-2-2-8-2-7-2-20v-14l1-2 1-1v-2h1v-1h1zm6 117v18l-1-1-1-1v-3l-1-1-1-1v-12q-2-13 0-28 2-16 3-19 2-3 5-3 2 0 3 3t-3 19q-4 15-4 29zm13-5l-1-7-1-1v-2h3v1h1v1h1v1h1v1h1l6 7q7 7 8 7h1v1h1v1h3l2 1h2v-3l-1-3v-1l-1-1-1-1t-6-7q-6-6-10-15-5-10-2-8 4 1 15 7 12 7 23 8t18 4q6 3 6 9t-4 12q-5 6-6 12-2 6-5 9-4 3-13 3-8 0-12-1-5-1-12-7-6-6-11-13t-6-15zm-1 33q2 0 3 2 0 3-3 3-2 0-2-2t2-3zm-14 4q0-3 3-3 3 1 2 3-1 3-3 3t-2-3zm20 7q2 0 3 2 0 2-3 3-2 0-2-3 0-2 2-2zm-21 3l1-1 2 1q2 1 2 3t-3 2-3-2 1-3zm15 7q3 0 3 2 0 3-3 3-3-1-3-3 1-2 3-2z" fill="#fafbf7" stroke="#fafbf7"/>
  <path d="m162 411h1v1h2v-1h1v6l-1 1-1 2-4 6q-6 5-8 10-2 6-2 12t1 7 1 3v1l-1 3q-1 4-5 5-4 2-8 5-4 2-6 2-1 0-1-1h-1v-1h-5q-1 0-4-2t-9-2q-5 0-2 2l4 1 2 3q3 2 4 2t2 1h1v1l1 1v1h1v1h1v3h-1v1h-1v3h-3q-3 0-7 0h-4v13q0 13-1 13 0 0 0 1h1v1h-1v1h1v1h-1q-1 0-2-2l-1-1v-1h-1v1h-1v1h1v1h1v2l4 6q4 6 4 11v4h-1v1h-1v1h-4v-1h-1v-1h-1v-1h-1v-1h-1t-2-4-8-9q-5-5-18-5t-14 2q0 1-1 10l-1 9 1 4q1 4 1 5v2h-2q-1 0-12 1h-10q0-1-2-1-1 0-4-4l-2-4q1 0 1-1v-1q1 0 1-1 1-1 2-7v-6q0-1-5-3-5-3-17-4-11-1-11 3l-1 4v-24l1 2v1h1q2 1 6 2 5 1 15 2t14-1 9-6 6-11q2-6 4-11 4-4 4-8 0-5 0-8-2-2-5-4-4-2-8-6l-5-3v-3l-1-1v-5h1q1 0 4-2 3 0 8-4t8-5q2 0 2-1v-1h1v-1h1v-1h1v1h1v2l1 1 1 1v1h1l1 7q0 7 2 9 1 3 5 3 4 2 18 1t23-5q8-4 20-18t15-16 3-2h1l1-1 1-1h1v-1z" fill="#f6f7f2" stroke="#f6f7f2"/>
  <path d="m80 378v1q-1 1 0 1t0 1q0 1-1 2-1 0-1 7 0 6 0 8 0 1 0 2 0 0-1 1v1h1q1 0 1-1t1-1 1 2l-1 1v1h2v2h1l1-1h1v1h-1v1l-5 5q-5 6-6 11t-2 9v3h-1v-1l-1-1-1-1v-2h-1v-1h-1v1h-1v1h-1v1q0 1-2 1-3 1-8 5t-8 4q-3 2-4 2h-1v4l-5-4q-6-4-12-4-7 0-10 1-3 2-6 7-4 4-4 5v1h-1v1h-1v1l-1 2-1 2v-78h6v-1h1v-1h1l4-4q5-4 10-6 4-2 18-5t20-3q5 0 6 1 2 1 2 2t2 1q1 0 4 4 2 5 4 6 2 2 2 2z" fill="#edf0e5" stroke="#edf0e5"/>
  <path d="m524 76h-1v1h-1q0 1-1 1t-1 1-1 1h-1l1 1 1 1h2q2 0 4 0 1-1 2 1 1 3 6 5 4 2 4 1t2-1q1 0 6-2 4-2 5-3t1-1q1 0 1 0h1v-1h1v-1h1v-3h1v-1h1v2l1 1 1 1v2h-1v1q-1 0-3 2l-2 3h-2l6 2q6 1 6 2 0 0 1 4v4q0 2-3 2-4 1-6 3-1 1-4 2-4 0-4 8l-2 8v5h2v-1h1v-1h2v-1h1v-1l4-4q5-4 7-4t5-1h4v2l1 1q1 2 1 10t-3 16-11 14q-8 7-8 8t-2 2q-1 0-4 4l-2 4h-1v1h-1v7h2q3 0 4 0h1v2q0 1 1 1l2-1 1 2v2h-2l-1 1q-1 1-1 1-1 0 0 1t0 1-1 1-2 1q-1 1-1 2-1 1-5 4-4 2-8 1t-4 1q0 1-2 1-1 1-2 1-2 2-4 6l-1 4v1h-1q0 1 0 1t-3 1q-2 1-7 7-4 5-11 10l-7 4-1 1-1 1h-1l-2-1-2-1h-1v-1l1-1h1v-1h1l1-1h1v-1h1v-1h1q1 0 1 0v-1t1-1h1t0-1l1-3q1-3 1-3 0-1 3 1 3 0 3-3 0-4 1-4 1-1 1-2 1-1-1-1t-2-1v-1h1q1 0 4-1l3-1h-3v-1t-1-2q-1-1-4-9t-4-8-7-6-13-8l-6-2h-3v-1h7v-1l-1-2t-1-2q-1-1-3-8t-1-16q1-8 2-11 1-2 0-3-1 0-2-3-1-2-3-5-2-2-4-2l-1 2h-2v-1l1-1 2-2q2-2 2-7t1-6l1-1v-2h1v-1h1v-1h1l1-1v1q0 1 0 3v2-1h1l4-1q4 0 4-1t7 0q8 1 8 1 1-1 3 0 3 0 7-9t3-10q-2 0-3-1l-1-1h3l1-1q1-1 4-1h3v-1h1v-1h-2l-2-1-2-1h1l4-1q3-1 5-1h2l1-1 2-1h2q2-1 2 0t-1 1q-1 1-1 1z" fill="#e9eddf" stroke="#e9eddf"/>
  <path d="m380 16h1l3 3q2 3 2 3h1t1 1l4 5q5 6 11 8 6 4 7 5 0 2 0 9t-4 14-13 14q-9 8-9 8v1h-1v1h-2v1h-1v1h-1q-1 0-5 2-3 2 0-4 4-6 5-12 1-5-3-3-3 1-3-1 1-2 1-7t-2-5q-2 1-6 4l-4 4v-8q0-8-1-10l-1-2v-3h-1v-1h-1v-1h-1v-1h-4v1h-1v2l-1 1-1 2v14q0 13 2 20 2 6 2 8v4h-8q-3 0-6-2-4-2-10-7l-6-6v-2h-1v-1h-1l-1-1-1-1h-2v7l3 4q2 5 2 5 1 0 1 1v1h1v1h1v3h-3q-3 0-10 0h-7v2h1v1h1v1h1v1h1v1h1l7 4q8 4 17 4h9l2-1h1v1l-1 2v2h-1v1h-1v2h-1q0 1-2 2-1 2-14 12l-13 11h-1l-1 1-1 1h-1v1l-1 1v1l7-1q7 0 8-1l2-1h3v2l-1 2-1 4q-1 3-2 4l-1 1v2h-1v1h4l1-1 1-1h1l1-1 1-1 4-4q4-4 4-5l1-1 1-1v-1h1v-1h1v-1h1v-1h1v5q0 4-1 14-1 11-3 15-2 5-8 8t-18 5l-11 2h-3q-3 0-4-1-2-1-8-5-5-4-7-12-3-8-7-13t-4-10 2-8q3-3 20-8l18-5 1-1 1-1h2v-1l1-1 1-1v-2h-2l-1-1h-1l-4 1q-4 1-14-1-9-2-14-4-4-4-6-8-2-5-4-6t-2-4q0-4 1-6 1-3 2-9v-7q-1 0-1 0v-7q0-7 3-11t6-6 11-3q8-2 9-3 2 0 7 0t10 4q4 4 9 12t7 12q2 5 2 6v1h1v1h1v1h1v1h2l1 1h2v-7l-6-14q-6-15-5-24t3-12q2-4 10-6 9-4 14-6t12-2q6 0 7 1t1 1z" fill="#c4cfaa" stroke="#c4cfaa"/>
  <path d="m358 191q0-3 3-3 3 1 2 3-1 3-3 3t-2-3z" fill="#d1d6bd" stroke="#d1d6bd"/>
  <path d="m1 608v-4h4l2 2q2 0 3 1l1 1h1l2 4q4 4 4 6 0 1 1 4v8l-1 6v2h-8l-1-1-1-1v-1h-1q0-1-2-3-3-2-3-11l-1-9v-4z" fill="#c4cfab" stroke="#c4cfab"/>
  <path d="m232 398h4l1 1 1 1v10q0 1-1 2-1 0-2 2 0 1-5 4-4 2-6 5-1 3-3 4-3 1-4 4t-3 13q0 9 0 20 2 11 3 19 2 7 6 7t7 0h2l-2 1q-2 1-6 3-4 1-4 2t-2 12q0 12-1 14t-3 2q-3 2-8 2-4 0-6 3-3 3-8 3-4 2-10-4-7-6-10-6-4 0-5 1t-2 1v1h-1v1l-1 1v1h-2v-1l1-1v-1l1-1 1-1v-2l1-2q1-2 1-4t0-9l-2-7v-3l-1-1v-1h-6l-1 1-2 1-5 5q-5 5-7 12t-3 7v1h-1v2h-1v1h-1v2h-4v-1l-1-1-1-1v-3q0-4 2-9t3-15q1-9-2-15l-3-5-1-1h-1v-2h-1l-1-1h4v1h1q0 1 1 1 2 0 6-2 4-3 8-5 4-1 5-5l1-3 1 1 1 1v2h1q0 1 3 6 2 5 8 5 5 0 10-2 6-2 12-6t10-10 5-22q1-17 3-20 1-2 6-6 4-4 10-8 6-2 10-2z" fill="#f4f6ef" stroke="#f4f6ef"/>
  <path d="m784 579q0-3 3-2t3 3q-1 2-4 2-2 0-2-3z" fill="#d3d8c3" stroke="#d3d8c3"/>
  <path d="m56 284l11-3h1v1q0 1-12 6-13 4-21 6t-15 2h-6v-5h1v-1h2l9-1q10-1 14-1t16-4z" fill="#cdd5b9" stroke="#cdd5b9"/>
  <path d="m200 25h1v2q0 3 2 3t2 1q1 1 2-1t2-2h1v1q0 1-3 5-3 3-5 18l-2 14v2h-1v-2l-1-3v1l-1-1-1-1v2q0 1-1 1 0 1-1-2-2-2-2-1t-2 1q-1-1-2 1 0 1-4 1-3 1-5 1h-2l-1 1h-2v-2h-1v-1h-1v-6q0-4 2-8 1-3 2-4 2-1 3-5t3-5 2-2 1-2q1 0 7-3 7-3 8-4z" fill="#e8ecdd" stroke="#e8ecdd"/>
  <path d="m452 176l14-1v1h3l6 2q7 2 13 8t7 6 4 8 4 9q1 2 1 2v1h3l-3 1q-3 1-4 1h-1v1q0 1 2 1t1 1q0 1-1 2-1 0-1 4 0 3-3 3-3-2-3-1 0 0-1 3l-1 3v2h-1v1h-2v-1l1-1v-4q0-1-1-2-1-2-14-6t-22-9-11-9q-2-5-3-16 0-10 13-10z" fill="#e5eada" stroke="#e5eada"/>
 </g>
</svg>
